<svg width="184.000000pt" height="145.000000pt" viewBox="0 0 184.000000 145.000000" xmlns="http://www.w3.org/2000/svg">
  <g transform="translate(0.000000,145.000000) scale(0.100000,-0.100000)" fill="#fefefe" stroke="none">
    <path d="M0 725 l0 -725 920 0 920 0 0 725 0 725 -920 0 -920 0 0 -725z m937
699 c-3 -3 -12 -4 -19 -1 l-13 5 19 1 c11 1 17 -2 13 -5z m-40 -31 c-4 -3 -7
0 -7 7 0 7 3 10 7 7 3 -4 3 -10 0 -14z m40 -30 c-4 -3 -10 -3 -14 0 -3 4 0 7
7 7 7 0 10 -3 7 -7z m423 -78 c0 -14 -4 -25 -10 -25 -5 0 -10 11 -10 25 0 14
5 25 10 25 6 0 10 -11 10 -25z m-320 0 c0 -8 -4 -15 -10 -15 -5 0 -7 7 -4 15
4 8 8 15 10 15 2 0 4 -7 4 -15z m370 -5 c0 -11 -4 -20 -10 -20 -5 0 -10 9 -10
20 0 11 5 20 10 20 6 0 10 -9 10 -20z m60 1 c0 -11 5 -21 12 -23 6 -2 -6 -4
-27 -4 -21 0 -33 2 -26 4 6 2 11 12 11 23 l0 19 15 0 15 0 0 -19z m129 -8 c0
-16 -3 -22 -6 -15 -2 6 -11 12 -19 12 -8 0 -14 7 -14 15 l0 15 20 0 20 0 -1
-27z m68 0 c-4 -3 -7 0 -7 7 0 7 3 10 7 7 3 -4 3 -10 0 -14z m-614 -70 c-7
-18 -23 -17 -23 2 0 8 -7 15 -15 15 -8 0 -15 4 -15 9 l0 9 29 -11 29 -11 -5
-13z m174 -50 c-4 -3 -7 0 -7 7 0 7 3 10 7 7 3 -4 3 -10 0 -14z m71 -70 c-10
-2 -18 -11 -18 -19 l0 -14 -25 0 -25 0 0 15 0 15 -55 0 -55 0 0 -15 c0 -8 7
-15 15 -15 l15 0 0 -20 0 -20 25 0 25 0 0 -15 0 -15 -25 0 -25 0 0 -20 0 -20
25 0 25 0 0 -15 0 -15 -25 0 -25 0 0 -20 0 -20 -15 0 -15 0 0 20 0 20 -110 0
-110 0 0 -20 c0 -11 -4 -20 -10 -20 -5 0 -10 9 -10 20 l0 20 -24 0 -25 0 -3
-22 c-3 -13 -4 25 -3 84 l2 107 -21 4 c-12 2 98 4 244 4 146 1 257 -1 248 -4z
m-18 -88 l0 -15 -20 0 -20 0 0 15 0 15 20 0 20 0 0 -15z m0 -70 l0 -15 -25 0
-25 0 0 15 0 15 25 0 25 0 0 -15z m-1033 -107 c-3 -7 -5 -2 -5 12 0 14 2 19 5
13 2 -7 2 -19 0 -25z m250 -5 l-5 -18 0 30 c0 17 2 24 5 18 2 -7 2 -21 0 -30z
m1090 5 l-5 -13 -1 19 c-1 11 2 17 5 13 3 -3 4 -12 1 -19z m-1350 -50 l-5 -13
-1 19 c-1 11 2 17 5 13 3 -3 4 -12 1 -19z m1340 -10 c-3 -7 -5 -2 -5 12 0 14
2 19 5 13 2 -7 2 -19 0 -25z m-1090 -15 l-5 -18 0 30 c0 17 2 24 5 18 2 -7 2
-21 0 -30z m-260 -25 l-5 -13 -1 19 c-1 11 2 17 5 13 3 -3 4 -12 1 -19z m590
-10 l-5 -13 -1 19 c-1 11 2 17 5 13 3 -3 4 -12 1 -19z m-340 -30 c-3 -7 -5 -2
-5 12 0 14 2 19 5 13 2 -7 2 -19 0 -25z m350 -20 l-5 -13 -1 19 c-1 11 2 17 5
13 3 -3 4 -12 1 -19z m-360 -45 l-5 -18 0 30 c0 17 2 24 5 18 2 -7 2 -21 0
-30z m370 -10 c-4 -3 -7 0 -7 7 0 7 3 10 7 7 3 -4 3 -10 0 -14z m550 0 c-4 -3
-7 0 -7 7 0 7 3 10 7 7 3 -4 3 -10 0 -14z m270 0 c-4 -3 -7 0 -7 7 0 7 3 10 7
7 3 -4 3 -10 0 -14z m-1200 -60 l-5 -18 0 30 c0 17 2 24 5 18 2 -7 2 -21 0
-30z m1210 20 c-4 -3 -7 0 -7 7 0 7 3 10 7 7 3 -4 3 -10 0 -14z m-1470 -40
c-3 -10 -5 -2 -5 17 0 19 2 27 5 18 2 -10 2 -26 0 -35z m650 30 c-4 -3 -7 0
-7 7 0 7 3 10 7 7 3 -4 3 -10 0 -14z m200 -10 c-4 -3 -7 0 -7 7 0 7 3 10 7 7
3 -4 3 -10 0 -14z m630 -20 c-4 -3 -7 0 -7 7 0 7 3 10 7 7 3 -4 3 -10 0 -14z
m-820 -20 c-4 -3 -7 0 -7 7 0 7 3 10 7 7 3 -4 3 -10 0 -14z m-410 -30 l-5 -18
0 30 c0 17 2 24 5 18 2 -7 2 -21 0 -30z m1090 -30 c-2 -16 -4 -5 -4 22 0 28 2
40 4 28 2 -13 2 -35 0 -50z m150 40 c-4 -3 -7 0 -7 7 0 7 3 10 7 7 3 -4 3 -10
0 -14z m-1500 -40 c-3 -10 -5 -2 -5 17 0 19 2 27 5 18 2 -10 2 -26 0 -35z
m680 10 c-4 -3 -7 0 -7 7 0 7 3 10 7 7 3 -4 3 -10 0 -14z m830 -10 c-4 -3 -7
0 -7 7 0 7 3 10 7 7 3 -4 3 -10 0 -14z m-1260 -35 c-3 -7 -5 -2 -5 12 0 14 2
19 5 13 2 -7 2 -19 0 -25z m440 -5 c-4 -3 -7 0 -7 7 0 7 3 10 7 7 3 -4 3 -10
0 -14z m-700 -40 c-3 -10 -5 -2 -5 17 0 19 2 27 5 18 2 -10 2 -26 0 -35z
m1350 -50 c-2 -16 -4 -3 -4 27 0 30 2 43 4 28 2 -16 2 -40 0 -55z m-1100 25
c-3 -7 -5 -2 -5 12 0 14 2 19 5 13 2 -7 2 -19 0 -25z m460 15 c-4 -3 -7 0 -7
7 0 7 3 10 7 7 3 -4 3 -10 0 -14z m830 0 c-4 -3 -7 0 -7 7 0 7 3 10 7 7 3 -4
3 -10 0 -14z m-1550 -60 l-5 -18 0 30 c0 17 2 24 5 18 2 -7 2 -21 0 -30z
m1560 20 c-4 -3 -7 0 -7 7 0 7 3 10 7 7 3 -4 3 -10 0 -14z m-1310 -40 l-5 -18
0 30 c0 17 2 24 5 18 2 -7 2 -21 0 -30z m1320 0 c-4 -3 -7 0 -7 7 0 7 3 10 7
7 3 -4 3 -10 0 -14z m-220 -80 c-2 -16 -4 -5 -4 22 0 28 2 40 4 28 2 -13 2
-35 0 -50z m-1360 20 l-5 -18 0 30 c0 17 2 24 5 18 2 -7 2 -21 0 -30z m493 22
l12 -14 -9 -28 -9 -28 -33 -10 -32 -10 -6 -27 c-3 -16 -9 -28 -14 -28 -5 0 -9
4 -9 8 0 11 21 123 26 140 l3 12 29 0 c16 0 35 -7 42 -15z m333 -37 l22 -3 3
-28 3 -28 -16 -25 -15 -24 -36 0 -36 0 6 33 c4 17 9 50 13 72 3 22 11 43 17
47 l11 7 3 -24 3 -24 22 -3z m93 25 c-3 -16 -8 -46 -12 -68 -4 -22 -11 -47
-16 -55 l-9 -15 5 31 c3 17 8 54 12 83 4 28 11 51 16 51 l10 0 -6 -27z m671
10 c-4 -3 -7 0 -7 7 0 7 3 10 7 7 3 -4 3 -10 0 -14z m-1340 -30 l-5 -18 0 30
c0 17 2 24 5 18 2 -7 2 -21 0 -30z m1350 -10 c-4 -3 -7 0 -7 7 0 7 3 10 7 7 3
-4 3 -10 0 -14z m-1054 -44 l-6 -51 19 4 19 3 9 48 c5 26 13 47 18 47 5 0 7
-8 5 -17 -3 -10 -8 -35 -12 -55 l-6 -38 -36 0 -36 0 7 38 c3 20 6 45 6 55 0 9
4 17 10 17 l9 0 -6 -51z m171 9 c-1 -21 -7 -45 -14 -53 l-13 -16 -26 3 -26 3
-3 29 c-2 16 1 33 7 39 l11 11 0 -12 0 -12 30 0 30 0 0 19 0 20 -22 4 -23 5
25 -1 25 -2 -1 -37z m311 5 c-4 -21 -9 -46 -12 -56 l-5 -18 -31 3 -32 3 -3 28
-3 28 16 25 15 24 31 0 30 0 -6 -37z m-1038 -30 c-3 -10 -5 -2 -5 17 0 19 2
27 5 18 2 -10 2 -26 0 -35z m250 5 c-3 -7 -5 -2 -5 12 0 14 2 19 5 13 2 -7 2
-19 0 -25z" />
    <path d="M1040 1065 l0 -15 -25 0 -25 0 0 -20 0 -20 25 0 25 0 0 20 0 20 15 0
15 0 0 -20 0 -20 25 0 25 0 0 -15 0 -15 -25 0 -25 0 0 -20 0 -20 25 0 25 0 0
-15 c0 -8 7 -15 15 -15 8 0 15 7 15 15 0 8 -7 15 -15 15 l-15 0 0 20 0 20 15
0 c8 0 15 7 15 15 0 8 -7 15 -15 15 l-15 0 0 20 0 20 -25 0 -25 0 0 15 c0 8
-7 15 -15 15 -8 0 -15 -7 -15 -15z" />
    <path d="M830 1030 l0 -20 20 0 20 0 0 -15 0 -15 -20 0 -20 0 0 -20 0 -20 25
0 25 0 0 20 c0 11 5 20 10 20 6 0 10 7 10 15 0 8 -4 15 -10 15 -5 0 -10 9 -10
20 l0 20 -25 0 -25 0 0 -20z" />
    <path d="M910 1030 l0 -20 30 0 30 0 0 20 0 20 -30 0 -30 0 0 -20z" />
    <path d="M1040 995 l0 -15 -25 0 -25 0 0 -20 0 -20 25 0 25 0 0 20 0 20 15 0
c8 0 15 7 15 15 0 8 -7 15 -15 15 -8 0 -15 -7 -15 -15z" />
    <path d="M900 960 l0 -20 35 0 35 0 0 20 0 20 -35 0 -35 0 0 -20z" />
    <path d="M590 200 l0 -30 19 0 c19 0 31 18 31 46 l0 14 -25 0 -25 0 0 -30z" />
    <path d="M946 158 c-3 -13 -6 -29 -6 -35 l0 -13 25 0 25 0 0 35 0 35 -19 0
-19 0 -6 -22z" />
    <path d="M810 119 l0 -20 22 3 23 3 3 18 3 17 -25 0 -26 0 0 -21z" />
    <path d="M1127 173 c-4 -3 -7 -21 -7 -40 l0 -33 15 0 c15 0 35 37 35 66 l0 14
-18 0 c-10 0 -22 -3 -25 -7z" />
  </g>
  <g transform="translate(0.000000,145.000000) scale(0.100000,-0.100000)" fill="#d1d2d4" stroke="none">
    <path d="M1127 1182 c-10 -20 -23 -47 -30 -59 l-12 -23 -152 0 -153 0 0 -135
0 -135 270 0 270 0 0 135 0 134 -106 3 -106 3 26 38 c25 36 35 77 19 77 -5 0
-16 -17 -26 -38z m-314 -217 l-3 -105 200 0 200 0 0 99 0 100 -42 4 -43 4 48
1 47 2 1 -37 c0 -21 0 -68 -1 -105 l-1 -68 35 0 35 0 4 108 3 107 2 -112 2
-113 -250 0 -250 0 0 110 c0 61 3 110 8 110 4 0 6 -47 5 -105z m57 65 c0 -5
-7 -10 -15 -10 -8 0 -15 5 -15 10 0 6 7 10 15 10 8 0 15 -4 15 -10z m90 0 c0
-5 -9 -10 -20 -10 -11 0 -20 5 -20 10 0 6 9 10 20 10 11 0 20 -4 20 -10z m70
0 c0 -5 -7 -10 -15 -10 -8 0 -15 5 -15 10 0 6 7 10 15 10 8 0 15 -4 15 -10z
m80 0 c0 -5 -11 -10 -25 -10 -14 0 -25 5 -25 10 0 6 11 10 25 10 14 0 25 -4
25 -10z m80 0 c0 -5 -11 -10 -25 -10 -14 0 -25 5 -25 10 0 6 11 10 25 10 14 0
25 -4 25 -10z m80 0 c0 -5 -7 -10 -15 -10 -8 0 -15 5 -15 10 0 6 7 10 15 10 8
0 15 -4 15 -10z m-400 -70 c0 -5 -7 -10 -15 -10 -8 0 -15 5 -15 10 0 6 7 10
15 10 8 0 15 -4 15 -10z m90 0 c0 -5 -11 -10 -25 -10 -14 0 -25 5 -25 10 0 6
11 10 25 10 14 0 25 -4 25 -10z m70 0 c0 -5 -7 -10 -15 -10 -8 0 -15 5 -15 10
0 6 7 10 15 10 8 0 15 -4 15 -10z m80 0 c0 -5 -11 -10 -25 -10 -14 0 -25 5
-25 10 0 6 11 10 25 10 14 0 25 -4 25 -10z m80 0 c0 -5 -11 -10 -25 -10 -14 0
-25 5 -25 10 0 6 11 10 25 10 14 0 25 -4 25 -10z m80 0 c0 -5 -7 -10 -15 -10
-8 0 -15 5 -15 10 0 6 7 10 15 10 8 0 15 -4 15 -10z m-400 -70 c0 -5 -7 -10
-15 -10 -8 0 -15 5 -15 10 0 6 7 10 15 10 8 0 15 -4 15 -10z m240 0 l0 -10
-100 0 -100 0 0 10 0 10 100 0 100 0 0 -10z m80 0 c0 -5 -11 -10 -25 -10 -14
0 -25 5 -25 10 0 6 11 10 25 10 14 0 25 -4 25 -10z m80 0 c0 -5 -7 -10 -15
-10 -8 0 -15 5 -15 10 0 6 7 10 15 10 8 0 15 -4 15 -10z" />
    <path d="M222 790 c-15 -88 -15 -90 1 -90 l14 0 11 64 c15 81 15 96 -1 96
l-13 0 -12 -70z" />
    <path d="M432 493 c-30 -203 -56 -376 -59 -385 l-4 -18 15 0 14 0 6 27 c10 47
106 705 106 725 0 10 -6 18 -13 18 l-12 0 -53 -367z" />
    <path d="M1575 848 c-10 -31 -26 -141 -20 -146 12 -12 25 17 38 86 l14 72 -14
0 c-7 0 -16 -6 -18 -12z" />
    <path d="M1724 752 l-92 -108 58 -238 c32 -130 60 -239 63 -242 3 -4 10 -4 15
-3 l10 4 -58 237 -57 237 83 98 c76 89 97 123 77 123 -5 0 -49 -49 -99 -108z" />
    <path d="M794 743 c8 -29 77 -382 79 -403 l1 -20 16 0 17 0 -43 218 c-24 119
-44 218 -44 220 0 1 -7 2 -16 2 l-15 0 5 -17z" />
    <path d="M1344 688 c3 -7 11 -32 18 -55 l12 -43 13 0 c17 0 16 21 -3 70 l-16
40 -15 0 -15 0 6 -12z" />
    <path d="M1073 628 c-32 -35 -44 -65 -45 -108 l0 -40 16 -25 c9 -14 21 -25 26
-25 13 0 13 1 -5 44 l-16 37 10 34 c5 19 19 48 30 64 12 16 21 32 21 35 0 13
-17 5 -37 -16z" />
    <path d="M677 545 c-15 -31 -27 -58 -27 -60 0 -3 6 -5 13 -5 14 0 57 80 57
105 0 29 -16 14 -43 -40z" />
    <path d="M186 578 c-3 -7 -16 -112 -31 -233 -15 -121 -29 -228 -31 -237 l-5
-18 15 0 c9 0 16 1 17 3 0 1 15 113 33 250 l33 247 -14 0 c-8 0 -15 -6 -17
-12z" />
    <path d="M1517 437 c-4 -56 -10 -142 -13 -190 l-7 -87 15 0 15 0 12 170 c12
160 10 210 -8 210 -4 0 -11 -46 -14 -103z" />
    <path d="M1331 454 c-12 -19 -21 -37 -21 -40 0 -2 7 -4 15 -4 14 0 45 48 45
70 0 21 -19 9 -39 -26z" />
    <path d="M585 360 c-18 -36 -19 -40 -2 -40 13 0 37 40 37 60 0 20 -20 9 -35
-20z" />
    <path d="M1255 369 c-4 -6 -5 -13 -2 -16 7 -7 27 6 27 18 0 12 -17 12 -25 -2z" />
  </g>
  <g transform="translate(0.000000,145.000000) scale(0.100000,-0.100000)" fill="#e7e7e8" stroke="none">
    <path d="M1152 1190 c0 -14 2 -19 5 -12 2 6 2 18 0 25 -3 6 -5 1 -5 -13z" />
    <path d="M1100 1135 l-12 -15 14 0 c8 0 15 7 15 15 0 8 -1 15 -2 15 -2 0 -8
-7 -15 -15z" />
    <path d="M782 963 c2 -140 5 -123 10 45 2 50 0 92 -4 92 -5 0 -7 -62 -6 -137z" />
    <path d="M879 1033 c4 -21 4 -54 1 -73 -6 -45 0 -100 11 -100 5 0 9 12 10 28
0 15 1 62 2 105 l2 77 -16 0 -16 0 6 -37z" />
    <path d="M965 995 l0 -75 15 0 15 0 0 75 0 75 -15 0 -15 0 0 -75z" />
    <path d="M1187 1033 l6 -16 -21 5 c-12 4 -22 2 -22 -3 0 -5 11 -9 25 -9 l25 0
0 20 c0 11 -4 20 -10 20 l-9 0 6 -17z" />
    <path d="M1230 1030 l0 -20 25 0 25 0 0 20 c0 11 -4 20 -10 20 -5 0 -7 -7 -4
-15 l6 -15 -17 0 -17 0 6 15 c3 8 1 15 -4 15 -6 0 -10 -9 -10 -20z" />
    <path d="M830 1019 c0 -5 9 -9 20 -9 11 0 20 2 20 4 0 2 -9 6 -20 9 -11 3 -20
1 -20 -4z" />
    <path d="M910 1019 c0 -5 11 -9 25 -9 14 0 25 2 25 4 0 2 -11 6 -25 8 -14 3
-25 1 -25 -3z" />
    <path d="M1015 1020 l-20 -9 23 0 c12 -1 22 4 22 9 0 6 -1 10 -2 9 -2 0 -12
-4 -23 -9z" />
    <path d="M1070 1018 c0 -5 11 -8 25 -8 14 0 25 3 25 8 0 4 -11 7 -25 7 -14 0
-25 -3 -25 -7z" />
    <path d="M1187 963 l6 -16 -21 5 c-12 4 -22 2 -22 -3 0 -5 11 -9 25 -9 l25 0
0 20 c0 11 -4 20 -10 20 l-9 0 6 -17z" />
    <path d="M1267 963 l6 -16 -21 5 c-12 4 -22 2 -22 -3 0 -5 11 -9 25 -9 l25 0
0 20 c0 11 -4 20 -10 20 l-9 0 6 -17z" />
    <path d="M830 949 c0 -5 9 -9 20 -9 11 0 20 2 20 4 0 2 -9 6 -20 9 -11 3 -20
1 -20 -4z" />
    <path d="M1015 950 l-20 -9 23 0 c12 -1 22 4 22 9 0 6 -1 10 -2 9 -2 0 -12 -4
-23 -9z" />
    <path d="M1070 948 c0 -5 11 -8 25 -8 14 0 25 3 25 8 0 4 -11 7 -25 7 -14 0
-25 -3 -25 -7z" />
    <path d="M923 943 c9 -2 23 -2 30 0 6 3 -1 5 -18 5 l-30 0 18 -5z" />
    <path d="M830 890 l0 -20 23 1 22 1 -17 5 c-10 2 -18 8 -18 13 0 5 8 11 18 13
l17 5 -22 1 -23 1 0 -20z" />
    <path d="M1008 903 l102 -4 0 -9 0 -9 -102 -4 -103 -3 108 -2 107 -2 0 20 0
20 -107 -2 -108 -2 103 -3z" />
    <path d="M1187 893 l6 -16 -21 5 c-12 4 -22 2 -22 -3 0 -5 11 -9 25 -9 l25 0
0 20 c0 11 -4 20 -10 20 l-9 0 6 -17z" />
    <path d="M1230 890 l0 -20 25 0 25 0 0 20 0 20 -25 0 -25 0 0 -20z m40 0 c0
-5 -7 -10 -15 -10 -8 0 -15 5 -15 10 0 6 7 10 15 10 8 0 15 -4 15 -10z" />
    <path d="M231 838 l0 -23 8 20 9 20 4 -25 5 -25 2 28 1 27 -15 0 -15 0 1 -22z" />
    <path d="M1820 850 c0 -5 5 -10 10 -10 6 0 10 5 10 10 0 6 -4 10 -10 10 -5 0
-10 -4 -10 -10z" />
    <path d="M501 824 l1 -19 5 13 c3 7 2 16 -1 19 -3 4 -6 -2 -5 -13z" />
    <path d="M241 774 l1 -19 5 13 c3 7 2 16 -1 19 -3 4 -6 -2 -5 -13z" />
    <path d="M1561 774 l1 -19 5 13 c3 7 2 16 -1 19 -3 4 -6 -2 -5 -13z" />
    <path d="M471 764 l1 -19 5 13 c3 7 2 16 -1 19 -3 4 -6 -2 -5 -13z" />
    <path d="M1581 764 l1 -19 5 13 c3 7 2 16 -1 19 -3 4 -6 -2 -5 -13z" />
    <path d="M491 754 l1 -19 5 13 c3 7 2 16 -1 19 -3 4 -6 -2 -5 -13z" />
    <path d="M790 752 c0 -5 7 -9 15 -9 8 0 15 4 15 9 0 4 -7 8 -15 8 -8 0 -15 -4
-15 -8z" />
    <path d="M1289 740 c25 -21 41 -26 41 -12 0 9 -44 32 -58 32 -4 -1 4 -10 17
-20z" />
    <path d="M1711 737 l-11 -14 13 0 c8 0 14 6 14 14 0 7 -1 13 -2 13 -2 0 -8 -6
-14 -13z" />
    <path d="M214 721 c1 -8 7 -16 14 -19 l12 -4 0 19 0 18 -9 -14 -9 -14 -4 14
-5 14 1 -14z" />
    <path d="M821 714 l1 -19 5 13 c3 7 2 16 -1 19 -3 4 -6 -2 -5 -13z" />
    <path d="M461 694 l1 -19 5 13 c3 7 2 16 -1 19 -3 4 -6 -2 -5 -13z" />
    <path d="M481 684 l1 -19 5 13 c3 7 2 16 -1 19 -3 4 -6 -2 -5 -13z" />
    <path d="M831 664 l1 -19 5 13 c3 7 2 16 -1 19 -3 4 -6 -2 -5 -13z" />
    <path d="M1361 644 l1 -19 5 13 c3 7 2 16 -1 19 -3 4 -6 -2 -5 -13z" />
    <path d="M471 614 l1 -19 5 13 c3 7 2 16 -1 19 -3 4 -6 -2 -5 -13z" />
    <path d="M1390 600 c0 -7 3 -10 7 -7 3 4 3 10 0 14 -4 3 -7 0 -7 -7z" />
    <path d="M461 554 l1 -19 5 13 c3 7 2 16 -1 19 -3 4 -6 -2 -5 -13z" />
    <path d="M1531 554 l1 -19 5 13 c3 7 2 16 -1 19 -3 4 -6 -2 -5 -13z" />
    <path d="M181 544 l1 -19 5 13 c3 7 2 16 -1 19 -3 4 -6 -2 -5 -13z" />
    <path d="M672 535 c-17 -37 -14 -45 4 -12 9 16 14 31 11 33 -2 2 -9 -7 -15
-21z" />
    <path d="M201 534 l1 -19 5 13 c3 7 2 16 -1 19 -3 4 -6 -2 -5 -13z" />
    <path d="M1543 475 l0 -40 4 23 c2 12 2 30 0 40 -3 9 -5 -1 -4 -23z" />
    <path d="M451 484 l1 -19 5 13 c3 7 2 16 -1 19 -3 4 -6 -2 -5 -13z" />
    <path d="M1522 480 c0 -14 2 -19 5 -12 2 6 2 18 0 25 -3 6 -5 1 -5 -13z" />
    <path d="M1671 484 l1 -19 5 13 c3 7 2 16 -1 19 -3 4 -6 -2 -5 -13z" />
    <path d="M171 464 l1 -19 5 13 c3 7 2 16 -1 19 -3 4 -6 -2 -5 -13z" />
    <path d="M191 454 l1 -19 5 13 c3 7 2 16 -1 19 -3 4 -6 -2 -5 -13z" />
    <path d="M1701 444 l1 -19 5 13 c3 7 2 16 -1 19 -3 4 -6 -2 -5 -13z" />
    <path d="M421 424 l1 -19 5 13 c3 7 2 16 -1 19 -3 4 -6 -2 -5 -13z" />
    <path d="M1080 430 c0 -6 7 -10 15 -10 8 0 15 2 15 4 0 2 -7 6 -15 10 -8 3
-15 1 -15 -4z" />
    <path d="M441 414 l1 -19 5 13 c3 7 2 16 -1 19 -3 4 -6 -2 -5 -13z" />
    <path d="M1711 404 l1 -19 5 13 c3 7 2 16 -1 19 -3 4 -6 -2 -5 -13z" />
    <path d="M181 374 l1 -19 5 13 c3 7 2 16 -1 19 -3 4 -6 -2 -5 -13z" />
    <path d="M596 381 c-4 -5 1 -8 9 -7 21 3 31 16 12 16 -9 0 -18 -4 -21 -9z" />
    <path d="M1263 365 l0 -15 14 11 c7 6 13 13 13 15 0 2 -6 4 -13 4 -8 0 -14 -7
-14 -15z" />
    <path d="M871 354 l1 -19 5 13 c3 7 2 16 -1 19 -3 4 -6 -2 -5 -13z" />
    <path d="M431 344 l1 -19 5 13 c3 7 2 16 -1 19 -3 4 -6 -2 -5 -13z" />
    <path d="M1511 344 l1 -19 5 13 c3 7 2 16 -1 19 -3 4 -6 -2 -5 -13z" />
    <path d="M1532 330 c0 -14 2 -19 5 -12 2 6 2 18 0 25 -3 6 -5 1 -5 -13z" />
    <path d="M564 328 c-3 -4 4 -8 15 -8 12 0 21 4 21 8 0 5 -7 9 -15 9 -9 0 -18
-4 -21 -9z" />
    <path d="M1175 330 l-20 -9 23 0 c12 -1 22 4 22 9 0 6 -1 10 -2 9 -2 0 -12 -4
-23 -9z" />
    <path d="M878 323 c6 -2 18 -2 25 0 6 3 1 5 -13 5 -14 0 -19 -2 -12 -5z" />
    <path d="M172 300 c0 -14 2 -19 5 -12 2 6 2 18 0 25 -3 6 -5 1 -5 -13z" />
    <path d="M566 248 c-8 -25 -26 -132 -26 -150 l0 -18 19 0 19 0 5 28 6 27 33
10 33 10 9 37 9 37 -13 15 -12 16 -40 0 -39 0 -3 -12z m64 -32 c0 -2 -3 -11
-6 -20 -9 -23 -24 -20 -24 4 l0 20 15 0 c8 0 15 -2 15 -4z" />
    <path d="M936 251 c-10 -15 -36 -124 -36 -148 l0 -23 45 0 45 0 15 24 16 24
-3 39 -3 38 -24 3 -23 4 5 24 4 24 -18 0 c-10 0 -20 -4 -23 -9z m44 -106 l0
-25 -16 0 -16 0 6 16 c3 9 6 20 6 25 0 5 5 9 10 9 6 0 10 -11 10 -25z" />
    <path d="M1039 170 l-15 -90 17 0 c20 0 23 9 38 94 15 79 14 86 -7 86 l-18 0
-15 -90z" />
    <path d="M141 234 l1 -19 5 13 c3 7 2 16 -1 19 -3 4 -6 -2 -5 -13z" />
    <path d="M1731 234 l1 -19 5 13 c3 7 2 16 -1 19 -3 4 -6 -2 -5 -13z" />
    <path d="M161 224 l1 -19 5 13 c3 7 2 16 -1 19 -3 4 -6 -2 -5 -13z" />
    <path d="M411 214 l1 -19 5 13 c3 7 2 16 -1 19 -3 4 -6 -2 -5 -13z" />
    <path d="M1501 214 l1 -19 5 13 c3 7 2 16 -1 19 -3 4 -6 -2 -5 -13z" />
    <path d="M1522 200 c0 -14 2 -19 5 -12 2 6 2 18 0 25 -3 6 -5 1 -5 -13z" />
    <path d="M676 164 c-3 -26 -6 -55 -6 -65 l0 -19 44 0 44 0 6 27 c3 16 8 45 12
66 l6 37 -20 0 -20 0 -6 -45 c-4 -24 -12 -47 -18 -51 l-10 -7 7 52 7 51 -20 0
-19 0 -7 -46z" />
    <path d="M800 188 l-21 -23 3 -40 3 -40 36 -3 36 -3 13 16 14 17 0 46 1 47
-32 3 -31 3 -22 -23z m60 -18 c0 -5 -9 -10 -21 -10 l-20 0 6 10 c3 6 13 10 21
10 8 0 14 -4 14 -10z m-15 -50 c-3 -5 -10 -10 -16 -10 -5 0 -9 5 -9 10 0 6 7
10 16 10 l15 0 -6 -10z" />
    <path d="M1105 186 l-16 -24 3 -39 3 -38 42 -3 41 -3 6 18 c2 10 8 39 12 66
l6 47 -41 0 -41 0 -15 -24z m50 -38 c-4 -13 -11 -27 -16 -33 l-9 -9 0 25 c0
27 7 39 22 39 l9 0 -6 -22z" />
    <path d="M1741 194 l1 -19 5 13 c3 7 2 16 -1 19 -3 4 -6 -2 -5 -13z" />
    <path d="M131 154 l1 -19 5 13 c3 7 2 16 -1 19 -3 4 -6 -2 -5 -13z" />
    <path d="M381 154 l1 -19 5 13 c3 7 2 16 -1 19 -3 4 -6 -2 -5 -13z" />
    <path d="M151 144 l1 -19 5 13 c3 7 2 16 -1 19 -3 4 -6 -2 -5 -13z" />
    <path d="M401 144 l1 -19 5 13 c3 7 2 16 -1 19 -3 4 -6 -2 -5 -13z" />
  </g>
  <g transform="translate(0.000000,145.000000) scale(0.100000,-0.100000)" fill="#f2f3f3" stroke="none">
    <path d="M892 1428 c-17 -17 -15 -42 6 -61 24 -22 45 -21 65 1 22 24 21 35 -1
55 -22 20 -53 22 -70 5z m49 -33 c-1 -15 -24 -12 -29 3 l-4 14 16 -4 c10 -1
17 -7 17 -13z" />
    <path d="M1237 1350 l-18 -21 16 -15 15 -15 22 20 22 21 -16 0 c-9 0 -18 7
-20 15 l-3 16 -18 -21z" />
    <path d="M1309 1319 c-6 -3 -9 -21 -7 -40 l3 -34 100 0 100 0 3 31 3 31 -15
13 -16 12 -13 -11 -13 -11 -12 12 -11 11 -14 -11 c-8 -7 -16 -9 -20 -6 -8 8
-76 11 -88 3z m24 -44 c-7 -21 -13 -19 -13 6 l0 20 10 -6 c5 -3 7 -12 3 -20z
m44 -7 c-3 -7 -5 -2 -5 12 0 14 2 19 5 13 2 -7 2 -19 0 -25z m50 10 l-5 -13
-1 19 c-1 11 2 17 5 13 3 -3 4 -12 1 -19z m60 0 l-5 -13 -1 19 c-1 11 2 17 5
13 3 -3 4 -12 1 -19z" />
    <path d="M1531 1316 c-7 -8 -11 -27 -9 -43 l3 -28 19 -3 c10 -2 22 2 27 10 l9
13 0 -12 c0 -7 8 -13 18 -13 l18 0 -4 40 -4 41 -18 -6 c-10 -3 -21 -1 -25 5
-9 14 -20 13 -34 -4z m16 -48 c-3 -7 -5 -2 -5 12 0 14 2 19 5 13 2 -7 2 -19 0
-25z" />
    <path d="M1631 1316 c-7 -8 -11 -27 -9 -43 l3 -28 20 0 19 0 14 25 14 25 -6
-27 -6 -28 19 0 20 0 -6 38 c-3 20 -7 39 -9 41 -2 2 -10 -1 -18 -8 l-14 -12
-6 16 c-7 19 -20 19 -35 1z m16 -48 c-3 -7 -5 -2 -5 12 0 14 2 19 5 13 2 -7 2
-19 0 -25z" />
    <path d="M1005 1269 l-26 -51 20 -5 19 -5 6 -24 c4 -13 10 -24 14 -24 9 0 52
84 52 100 0 6 -9 10 -20 10 l-20 0 0 25 c0 14 -4 25 -10 25 -5 0 -21 -23 -35
-51z m55 -30 c0 -11 -3 -11 -24 -3 -23 9 -20 23 4 17 11 -3 20 -9 20 -14z" />
    <path d="M1123 1168 c-6 -7 -10 -21 -10 -30 l0 -18 13 11 c7 6 12 19 11 30 -1
10 -2 19 -3 19 -1 0 -6 -6 -11 -12z" />
    <path d="M1205 1170 c-4 -7 -3 -16 3 -22 14 -14 45 -2 40 15 -6 16 -34 21 -43
7z" />
    <path d="M935 1100 l-160 -6 163 -2 162 -2 0 10 c0 6 -1 9 -2 8 -2 -1 -75 -5
-163 -8z" />
    <path d="M1163 1093 c32 -2 81 -2 110 0 29 2 3 3 -58 3 -60 0 -84 -1 -52 -3z" />
    <path d="M813 1069 l17 -10 113 3 112 3 -2 -40 c-1 -22 -2 -52 -2 -67 l-1 -28
-115 0 -115 0 0 29 0 29 112 1 c61 1 114 3 116 6 5 5 -133 9 -195 5 l-32 -1
-3 33 c-2 18 -4 -14 -4 -72 0 -58 2 -90 4 -72 l3 32 157 2 c86 0 142 3 124 5
l-33 4 3 17 c2 9 11 18 20 20 l16 3 5 -18 5 -18 1 23 1 22 -27 1 -28 2 35 7
35 7 -33 2 -33 1 3 17 c2 10 11 19 20 21 l16 3 5 -18 5 -18 1 23 1 22 -27 0
c-14 0 -23 3 -19 7 4 4 57 7 117 8 l110 0 -3 -113 c-2 -61 0 -112 5 -112 4 0
7 54 7 120 l0 120 -257 0 -258 -1 18 -10z" />
    <path d="M1132 961 c0 -56 3 -101 8 -101 4 0 10 9 13 19 l5 19 23 5 24 4 -30
3 -30 3 35 7 35 7 -33 2 -33 1 3 17 c2 9 14 20 28 24 l25 7 -30 2 -30 3 35 7
35 7 -33 2 -33 1 3 17 c2 9 14 20 28 24 l25 7 -22 1 c-12 1 -28 4 -36 7 l-15
6 0 -101z" />
    <path d="M831 1028 l1 -23 5 17 c2 9 12 19 21 21 l17 5 -22 1 -23 1 1 -22z" />
    <path d="M911 1028 l1 -23 5 17 c2 9 14 19 26 21 l22 4 -27 2 -28 1 1 -22z" />
    <path d="M1012 1043 c9 -2 19 -12 21 -21 l5 -17 1 23 1 22 -22 -1 -23 -1 17
-5z" />
    <path d="M1243 1043 c9 -2 23 -2 30 0 6 3 -1 5 -18 5 l-30 0 18 -5z" />
    <path d="M1226 992 c-2 -4 -2 -13 2 -18 l7 -10 25 7 25 7 -30 2 -30 3 35 7 35
7 -32 2 c-17 0 -34 -3 -37 -7z" />
    <path d="M831 958 l1 -23 5 17 c2 9 12 19 21 21 l17 5 -22 1 -23 1 1 -22z" />
    <path d="M923 973 c9 -2 23 -2 30 0 6 3 -1 5 -18 5 l-30 0 18 -5z" />
    <path d="M1012 973 c9 -2 19 -12 21 -21 l5 -17 1 23 1 22 -22 -1 -23 -1 17 -5z" />
    <path d="M1238 923 c12 -2 30 -2 40 0 9 3 -1 5 -23 4 l-40 0 23 -4z" />
    <path d="M832 890 c0 -14 2 -19 5 -12 2 6 2 18 0 25 -3 6 -5 1 -5 -13z" />
    <path d="M1112 890 c0 -14 2 -19 5 -12 2 6 2 18 0 25 -3 6 -5 1 -5 -13z" />
    <path d="M230 850 c0 -7 3 -10 7 -7 3 4 3 10 0 14 -4 3 -7 0 -7 -7z" />
    <path d="M477 843 l7 -17 4 12 c2 7 8 10 13 6 5 -3 9 0 9 5 0 6 -9 11 -20 11
l-19 0 6 -17z" />
    <path d="M1806 852 c-3 -5 1 -9 9 -9 8 0 15 4 15 9 0 4 -4 8 -9 8 -6 0 -12 -4
-15 -8z" />
    <path d="M250 810 c0 -7 3 -10 7 -7 3 4 3 10 0 14 -4 3 -7 0 -7 -7z" />
    <path d="M501 804 l1 -19 5 13 c3 7 2 16 -1 19 -3 4 -6 -2 -5 -13z" />
    <path d="M1590 810 c0 -7 3 -10 7 -7 3 4 3 10 0 14 -4 3 -7 0 -7 -7z" />
    <path d="M1560 790 c0 -7 3 -10 7 -7 3 4 3 10 0 14 -4 3 -7 0 -7 -7z" />
    <path d="M1750 785 l-12 -15 14 0 c8 0 15 7 15 15 0 8 -1 15 -2 15 -2 0 -8 -7
-15 -15z" />
    <path d="M470 780 c0 -7 3 -10 7 -7 3 4 3 10 0 14 -4 3 -7 0 -7 -7z" />
    <path d="M1580 750 c0 -7 3 -10 7 -7 3 4 3 10 0 14 -4 3 -7 0 -7 -7z" />
    <path d="M210 740 c0 -7 3 -10 7 -7 3 4 3 10 0 14 -4 3 -7 0 -7 -7z" />
    <path d="M491 734 l1 -19 5 13 c3 7 2 16 -1 19 -3 4 -6 -2 -5 -13z" />
    <path d="M820 730 c0 -7 3 -10 7 -7 3 4 3 10 0 14 -4 3 -7 0 -7 -7z" />
    <path d="M1696 722 c-3 -5 1 -9 9 -9 8 0 12 4 9 9 -3 4 -7 8 -9 8 -2 0 -6 -4
-9 -8z" />
    <path d="M830 680 c0 -7 3 -10 7 -7 3 4 3 10 0 14 -4 3 -7 0 -7 -7z" />
    <path d="M1355 680 c-4 -6 -3 -16 3 -22 l10 -10 7 12 c4 6 3 16 -3 22 l-10 10
-7 -12z m12 -17 c-4 -3 -7 0 -7 7 0 7 3 10 7 7 3 -4 3 -10 0 -14z" />
    <path d="M480 670 c0 -7 3 -10 7 -7 3 4 3 10 0 14 -4 3 -7 0 -7 -7z" />
    <path d="M1640 655 l-12 -15 14 0 c8 0 15 7 15 15 0 8 -1 15 -2 15 -2 0 -8 -7
-15 -15z" />
    <path d="M1110 644 l0 -16 15 12 c8 7 15 14 15 16 0 2 -7 4 -15 4 -8 0 -15 -7
-15 -16z" />
    <path d="M1072 627 l-22 -24 14 0 c8 0 14 5 13 11 -1 6 3 10 9 9 6 -1 11 5 11
13 0 8 -1 14 -2 14 -1 0 -11 -10 -23 -23z" />
    <path d="M840 620 c0 -7 3 -10 7 -7 3 4 3 10 0 14 -4 3 -7 0 -7 -7z" />
    <path d="M1391 614 l1 -19 5 13 c3 7 2 16 -1 19 -3 4 -6 -2 -5 -13z" />
    <path d="M470 600 c0 -7 3 -10 7 -7 3 4 3 10 0 14 -4 3 -7 0 -7 -7z" />
    <path d="M441 574 l1 -19 5 13 c3 7 2 16 -1 19 -3 4 -6 -2 -5 -13z" />
    <path d="M850 570 c0 -7 3 -10 7 -7 3 4 3 10 0 14 -4 3 -7 0 -7 -7z" />
    <path d="M461 534 l1 -19 5 13 c3 7 2 16 -1 19 -3 4 -6 -2 -5 -13z" />
    <path d="M201 514 l1 -19 5 13 c3 7 2 16 -1 19 -3 4 -6 -2 -5 -13z" />
    <path d="M860 520 c0 -7 3 -10 7 -7 3 4 3 10 0 14 -4 3 -7 0 -7 -7z" />
    <path d="M431 504 l1 -19 5 13 c3 7 2 16 -1 19 -3 4 -6 -2 -5 -13z" />
    <path d="M676 503 l-7 -18 12 12 c7 7 10 15 7 18 -3 3 -9 -2 -12 -12z" />
    <path d="M1521 504 l1 -19 5 13 c3 7 2 16 -1 19 -3 4 -6 -2 -5 -13z" />
    <path d="M1030 484 c0 -7 8 -22 18 -34 l19 -23 0 16 c0 10 -3 15 -6 12 -3 -3
-11 5 -18 17 -7 13 -12 18 -13 12z" />
    <path d="M1360 479 c0 -5 5 -7 10 -4 6 3 10 8 10 11 0 2 -4 4 -10 4 -5 0 -10
-5 -10 -11z" />
    <path d="M451 464 l1 -19 5 13 c3 7 2 16 -1 19 -3 4 -6 -2 -5 -13z" />
    <path d="M870 470 c0 -7 3 -10 7 -7 3 4 3 10 0 14 -4 3 -7 0 -7 -7z" />
    <path d="M1321 440 l-22 -30 16 0 c8 0 14 5 13 12 -2 7 3 12 11 13 17 0 26 21
13 29 -5 3 -19 -8 -31 -24z m26 3 c-4 -3 -7 0 -7 7 0 7 3 10 7 7 3 -4 3 -10 0
-14z" />
    <path d="M1700 460 c0 -7 3 -10 7 -7 3 4 3 10 0 14 -4 3 -7 0 -7 -7z" />
    <path d="M191 434 l1 -19 5 13 c3 7 2 16 -1 19 -3 4 -6 -2 -5 -13z" />
    <path d="M1542 430 c0 -14 2 -19 5 -12 2 6 2 18 0 25 -3 6 -5 1 -5 -13z" />
    <path d="M1680 440 c0 -7 3 -10 7 -7 3 4 3 10 0 14 -4 3 -7 0 -7 -7z" />
    <path d="M880 420 c0 -7 3 -10 7 -7 3 4 3 10 0 14 -4 3 -7 0 -7 -7z" />
    <path d="M161 404 l1 -19 5 13 c3 7 2 16 -1 19 -3 4 -6 -2 -5 -13z" />
    <path d="M440 400 c0 -7 3 -10 7 -7 3 4 3 10 0 14 -4 3 -7 0 -7 -7z" />
    <path d="M1690 400 c0 -7 3 -10 7 -7 3 4 3 10 0 14 -4 3 -7 0 -7 -7z" />
    <path d="M1261 376 c-6 -7 -25 -19 -41 -26 -38 -16 -40 -33 -3 -19 29 11 68
47 60 55 -2 2 -9 -2 -16 -10z" />
    <path d="M1511 374 l1 -19 5 13 c3 7 2 16 -1 19 -3 4 -6 -2 -5 -13z" />
    <path d="M601 353 l-11 -28 15 19 c8 11 15 23 15 28 0 15 -7 8 -19 -19z" />
    <path d="M890 370 c0 -7 3 -10 7 -7 3 4 3 10 0 14 -4 3 -7 0 -7 -7z" />
    <path d="M181 354 l1 -19 5 13 c3 7 2 16 -1 19 -3 4 -6 -2 -5 -13z" />
    <path d="M151 324 l1 -19 5 13 c3 7 2 16 -1 19 -3 4 -6 -2 -5 -13z" />
    <path d="M430 330 c0 -7 3 -10 7 -7 3 4 3 10 0 14 -4 3 -7 0 -7 -7z" />
    <path d="M1140 320 l-15 -10 12 0 c6 0 15 5 18 10 8 12 4 12 -15 0z" />
    <path d="M1532 300 c0 -14 2 -19 5 -12 2 6 2 18 0 25 -3 6 -5 1 -5 -13z" />
    <path d="M170 280 c0 -7 3 -10 7 -7 3 4 3 10 0 14 -4 3 -7 0 -7 -7z" />
    <path d="M421 264 l1 -19 5 13 c3 7 2 16 -1 19 -3 4 -6 -2 -5 -13z" />
    <path d="M140 250 c0 -7 3 -10 7 -7 3 4 3 10 0 14 -4 3 -7 0 -7 -7z" />
    <path d="M647 250 c6 -8 13 -26 16 -40 l4 -25 2 26 1 27 -17 13 -18 14 12 -15z" />
    <path d="M391 234 l1 -19 5 13 c3 7 2 16 -1 19 -3 4 -6 -2 -5 -13z" />
    <path d="M1051 234 l1 -19 5 13 c3 7 2 16 -1 19 -3 4 -6 -2 -5 -13z" />
    <path d="M1081 234 l1 -19 5 13 c3 7 2 16 -1 19 -3 4 -6 -2 -5 -13z" />
    <path d="M561 224 l1 -19 5 13 c3 7 2 16 -1 19 -3 4 -6 -2 -5 -13z" />
    <path d="M920 225 c0 -8 5 -15 10 -15 6 0 10 7 10 15 0 8 -4 15 -10 15 -5 0
-10 -7 -10 -15z" />
    <path d="M960 215 c0 -8 4 -15 10 -15 5 0 7 7 4 15 -4 8 -8 15 -10 15 -2 0 -4
-7 -4 -15z" />
    <path d="M161 204 l1 -19 5 13 c3 7 2 16 -1 19 -3 4 -6 -2 -5 -13z" />
    <path d="M411 194 l1 -19 5 13 c3 7 2 16 -1 19 -3 4 -6 -2 -5 -13z" />
    <path d="M591 192 l-1 -23 17 3 c9 2 18 9 19 16 1 7 0 8 -3 2 -7 -16 -21 -12
-26 8 l-5 17 -1 -23z" />
    <path d="M741 194 l1 -19 5 13 c3 7 2 16 -1 19 -3 4 -6 -2 -5 -13z" />
    <path d="M815 200 l-6 -10 15 6 c18 7 21 14 7 14 -6 0 -13 -4 -16 -10z" />
    <path d="M1005 200 c3 -5 8 -10 11 -10 3 0 2 5 -1 10 -3 6 -8 10 -11 10 -3 0
-2 -4 1 -10z" />
    <path d="M681 184 l1 -19 5 13 c3 7 2 16 -1 19 -3 4 -6 -2 -5 -13z" />
    <path d="M771 190 c0 -8 4 -24 9 -35 l9 -20 0 15 c0 8 -4 24 -9 35 l-9 20 0
-15z" />
    <path d="M1042 180 c0 -14 2 -19 5 -12 2 6 2 18 0 25 -3 6 -5 1 -5 -13z" />
    <path d="M551 174 l1 -19 5 13 c3 7 2 16 -1 19 -3 4 -6 -2 -5 -13z" />
    <path d="M711 174 l1 -19 5 13 c3 7 2 16 -1 19 -3 4 -6 -2 -5 -13z" />
    <path d="M838 183 c7 -3 16 -2 19 1 4 3 -2 6 -13 5 l-19 -1 13 -5z" />
    <path d="M911 174 l1 -19 5 13 c3 7 2 16 -1 19 -3 4 -6 -2 -5 -13z" />
    <path d="M1071 174 l1 -19 5 13 c3 7 2 16 -1 19 -3 4 -6 -2 -5 -13z" />
    <path d="M1191 174 l1 -19 5 13 c3 7 2 16 -1 19 -3 4 -6 -2 -5 -13z" />
    <path d="M1516 175 c-3 -8 -1 -15 4 -15 6 0 10 7 10 15 0 8 -2 15 -4 15 -2 0
-6 -7 -10 -15z" />
    <path d="M380 170 c0 -7 3 -10 7 -7 3 4 3 10 0 14 -4 3 -7 0 -7 -7z" />
    <path d="M953 165 c-3 -9 -3 -19 1 -22 3 -4 6 1 6 10 0 8 6 18 13 20 l12 5
-13 1 c-7 1 -15 -6 -19 -14z" />
    <path d="M1091 154 l1 -19 5 13 c3 7 2 16 -1 19 -3 4 -6 -2 -5 -13z" />
    <path d="M981 144 l1 -19 5 13 c3 7 2 16 -1 19 -3 4 -6 -2 -5 -13z" />
    <path d="M1121 144 l1 -19 5 13 c3 7 2 16 -1 19 -3 4 -6 -2 -5 -13z" />
    <path d="M613 143 c4 -3 10 -3 14 0 3 4 0 7 -7 7 -7 0 -10 -3 -7 -7z" />
    <path d="M671 134 l1 -19 5 13 c3 7 2 16 -1 19 -3 4 -6 -2 -5 -13z" />
    <path d="M731 134 l1 -19 5 13 c3 7 2 16 -1 19 -3 4 -6 -2 -5 -13z" />
    <path d="M761 134 l1 -19 5 13 c3 7 2 16 -1 19 -3 4 -6 -2 -5 -13z" />
    <path d="M1011 134 l1 -19 5 13 c3 7 2 16 -1 19 -3 4 -6 -2 -5 -13z" />
    <path d="M151 124 l1 -19 5 13 c3 7 2 16 -1 19 -3 4 -6 -2 -5 -13z" />
    <path d="M400 130 c0 -7 3 -10 7 -7 3 4 3 10 0 14 -4 3 -7 0 -7 -7z" />
    <path d="M580 130 c0 -7 3 -10 7 -7 3 4 3 10 0 14 -4 3 -7 0 -7 -7z" />
    <path d="M700 126 c0 -8 4 -17 9 -20 l9 -6 -5 20 c-6 23 -13 26 -13 6z" />
    <path d="M1031 124 l1 -19 5 13 c3 7 2 16 -1 19 -3 4 -6 -2 -5 -13z" />
    <path d="M1181 124 l1 -19 5 13 c3 7 2 16 -1 19 -3 4 -6 -2 -5 -13z" />
    <path d="M541 114 l1 -19 5 13 c3 7 2 16 -1 19 -3 4 -6 -2 -5 -13z" />
    <path d="M810 120 c0 -7 3 -10 7 -7 3 4 3 10 0 14 -4 3 -7 0 -7 -7z" />
    <path d="M901 114 l1 -19 5 13 c3 7 2 16 -1 19 -3 4 -6 -2 -5 -13z" />
    <path d="M1061 114 l1 -19 5 13 c3 7 2 16 -1 19 -3 4 -6 -2 -5 -13z" />
    <path d="M953 113 c4 -3 10 -3 14 0 3 4 0 7 -7 7 -7 0 -10 -3 -7 -7z" />
    <path d="M120 100 c0 -6 7 -10 15 -10 8 0 15 2 15 4 0 2 -7 6 -15 10 -8 3 -15
1 -15 -4z" />
    <path d="M370 98 c0 -4 7 -8 15 -8 8 0 15 4 15 8 0 5 -7 9 -15 9 -8 0 -15 -4
-15 -9z" />
    <path d="M570 90 c0 -7 3 -10 7 -7 3 4 3 10 0 14 -4 3 -7 0 -7 -7z" />
    <path d="M750 90 c0 -7 3 -10 7 -7 3 4 3 10 0 14 -4 3 -7 0 -7 -7z" />
    <path d="M1095 90 c3 -5 8 -10 11 -10 3 0 2 5 -1 10 -3 6 -8 10 -11 10 -3 0
-2 -4 1 -10z" />
  </g>
  <g transform="translate(0.000000,145.000000) scale(0.100000,-0.100000)" fill="#f8f8f9" stroke="none">
    <path d="M889 1423 l-14 -18 18 14 c9 7 17 15 17 17 0 8 -8 3 -21 -13z" />
    <path d="M935 1410 c3 -5 8 -10 11 -10 3 0 2 5 -1 10 -3 6 -8 10 -11 10 -3 0
-2 -4 1 -10z" />
    <path d="M951 1370 c-13 -11 -19 -20 -14 -20 6 0 18 9 28 20 23 25 17 25 -14
0z" />
    <path d="M1245 1359 c-4 -6 -5 -12 -2 -15 2 -3 7 2 10 11 7 17 1 20 -8 4z" />
    <path d="M1220 1334 c0 -7 27 -34 34 -34 3 0 3 6 0 14 -5 14 -34 31 -34 20z" />
    <path d="M1270 1330 l-15 -10 12 0 c6 0 15 5 18 10 8 12 4 12 -15 0z" />
    <path d="M1433 1319 l17 -10 0 -29 0 -30 -20 0 -20 0 0 29 c0 17 -3 32 -7 34
-5 3 -8 -10 -8 -29 l0 -35 20 -4 c11 -2 36 -3 55 -2 l35 2 1 35 2 35 -5 -32
-4 -33 -20 0 -19 0 0 30 0 29 18 10 c9 6 12 11 7 11 -6 0 -16 -5 -22 -11 l-11
-11 -6 11 c-4 6 -13 11 -19 11 -7 0 -4 -5 6 -11z" />
    <path d="M1553 1319 l17 -10 0 -24 c0 -13 5 -27 10 -30 l10 -6 0 24 c0 23 -27
57 -46 57 -5 0 -1 -5 9 -11z" />
    <path d="M1640 1326 c0 -2 7 -7 16 -10 l15 -6 -6 10 c-6 10 -25 14 -25 6z" />
    <path d="M1042 1295 l0 -30 5 18 c2 9 2 23 0 30 -3 6 -5 -1 -5 -18z" />
    <path d="M1340 1310 c0 -5 5 -10 10 -10 6 0 10 5 10 10 0 6 -4 10 -10 10 -5 0
-10 -4 -10 -10z" />
    <path d="M1602 1290 c0 -19 2 -27 5 -17 2 9 2 25 0 35 -3 9 -5 1 -5 -18z" />
    <path d="M1682 1308 c-15 -15 -15 -38 -1 -58 l10 -15 -6 22 c-3 13 -2 31 4 40
l10 18 1 -25 c0 -14 5 -32 11 -40 l11 -15 -6 18 c-3 10 -6 30 -6 43 0 26 -10
30 -28 12z" />
    <path d="M1314 1295 c-3 -8 -4 -20 -2 -27 3 -7 7 -1 10 15 6 29 1 36 -8 12z" />
    <path d="M1425 1284 c0 -13 3 -24 8 -24 4 0 7 9 7 19 0 11 -3 22 -7 24 -5 3
-8 -6 -8 -19z" />
    <path d="M1477 1303 c-9 -9 -9 -43 1 -43 4 0 7 11 7 25 0 14 0 25 -1 25 0 0
-4 -3 -7 -7z" />
    <path d="M1523 1278 l2 -33 23 -1 22 -2 -19 5 -20 4 -5 30 -6 29 3 -32z" />
    <path d="M1548 1283 l6 -28 4 19 c2 10 0 22 -6 28 l-10 10 6 -29z" />
    <path d="M1648 1283 l6 -28 4 19 c2 10 0 22 -6 28 l-10 10 6 -29z" />
    <path d="M1381 1284 l1 -19 5 13 c3 7 2 16 -1 19 -3 4 -6 -2 -5 -13z" />
    <path d="M1025 1260 c7 -11 45 -20 45 -10 0 4 -11 10 -25 12 -13 3 -22 2 -20
-2z" />
    <path d="M1617 1257 l-5 -13 21 -2 22 -1 -10 7 c-6 4 -13 11 -16 15 -4 4 -9 2
-12 -6z" />
    <path d="M1010 1240 c0 -6 6 -10 14 -10 8 0 16 -5 18 -12 l4 -12 7 11 6 10
-24 11 -25 12 0 -10z" />
    <path d="M986 1219 c3 -5 11 -9 19 -9 7 0 16 -8 18 -17 l5 -18 1 21 1 22 -25
4 -24 5 5 -8z" />
    <path d="M1145 1210 c3 -5 8 -10 11 -10 2 0 4 5 4 10 0 6 -5 10 -11 10 -5 0
-7 -4 -4 -10z" />
    <path d="M1130 1180 c0 -7 3 -10 7 -7 3 4 3 10 0 14 -4 3 -7 0 -7 -7z" />
    <path d="M1204 1169 c-3 -6 -2 -15 3 -20 l9 -9 0 20 c0 23 -2 24 -12 9z" />
    <path d="M1033 1163 c4 -3 10 -3 14 0 3 4 0 7 -7 7 -7 0 -10 -3 -7 -7z" />
    <path d="M1120 1150 c0 -5 5 -10 10 -10 6 0 10 5 10 10 0 6 -4 10 -10 10 -5 0
-10 -4 -10 -10z" />
    <path d="M1090 1119 c0 -5 5 -7 10 -4 6 3 10 8 10 11 0 2 -4 4 -10 4 -5 0 -10
-5 -10 -11z" />
    <path d="M883 1063 c4 -3 10 -3 14 0 3 4 0 7 -7 7 -7 0 -10 -3 -7 -7z" />
    <path d="M973 1063 c4 -3 10 -3 14 0 3 4 0 7 -7 7 -7 0 -10 -3 -7 -7z" />
    <path d="M883 995 c0 -8 4 -12 9 -9 5 3 6 10 3 15 -9 13 -12 11 -12 -6z" />
    <path d="M973 993 c4 -3 10 -3 14 0 3 4 0 7 -7 7 -7 0 -10 -3 -7 -7z" />
    <path d="M883 923 c4 -3 10 -3 14 0 3 4 0 7 -7 7 -7 0 -10 -3 -7 -7z" />
    <path d="M473 853 c4 -3 10 -3 14 0 3 4 0 7 -7 7 -7 0 -10 -3 -7 -7z" />
    <path d="M1575 849 c-4 -6 -4 -13 -1 -16 3 -4 6 -1 6 5 0 6 8 13 18 15 l17 5
-17 1 c-9 0 -20 -4 -23 -10z" />
    <path d="M1820 851 c0 -6 -5 -10 -11 -8 -6 1 -13 -3 -16 -10 l-4 -11 21 5 c25
7 34 19 20 28 -5 3 -10 1 -10 -4z" />
    <path d="M244 798 l-7 -11 11 7 c12 7 16 16 8 16 -3 0 -8 -5 -12 -12z" />
    <path d="M1777 793 c-4 -3 -7 -11 -7 -17 l0 -10 12 12 c6 6 9 14 7 17 -3 3 -9
2 -12 -2z" />
    <path d="M1740 769 c0 -5 5 -7 10 -4 6 3 10 8 10 11 0 2 -4 4 -10 4 -5 0 -10
-5 -10 -11z" />
    <path d="M1239 758 c24 -5 53 -18 64 -29 12 -10 26 -19 33 -19 6 0 15 -7 18
-16 4 -9 9 -14 13 -10 9 8 -38 57 -48 50 -5 -3 -9 -1 -9 5 0 11 -64 31 -95 30
-11 -1 0 -6 24 -11z" />
    <path d="M790 750 c0 -7 3 -10 7 -7 3 4 3 10 0 14 -4 3 -7 0 -7 -7z" />
    <path d="M815 740 c3 -5 8 -10 11 -10 3 0 2 5 -1 10 -3 6 -8 10 -11 10 -3 0
-2 -4 1 -10z" />
    <path d="M1573 733 c-3 -10 -13 -27 -22 -38 l-16 -20 22 18 c11 10 23 27 26
38 6 24 -1 25 -10 2z" />
    <path d="M1721 727 c-6 -6 -17 -12 -23 -12 -6 0 -13 -5 -15 -12 l-4 -11 20 5
c22 5 47 30 39 38 -2 3 -10 -1 -17 -8z" />
    <path d="M460 710 c0 -7 3 -10 7 -7 3 4 3 10 0 14 -4 3 -7 0 -7 -7z" />
    <path d="M825 690 c3 -5 8 -10 11 -10 3 0 2 5 -1 10 -3 6 -8 10 -11 10 -3 0
-2 -4 1 -10z" />
    <path d="M1135 660 c-7 -12 2 -12 30 0 l20 9 -22 0 c-12 1 -25 -3 -28 -9z" />
    <path d="M1377 650 c3 -11 9 -22 13 -25 5 -3 6 4 3 15 -3 11 -9 22 -13 25 -5
3 -6 -4 -3 -15z" />
    <path d="M1653 656 c-24 -11 -29 -21 -14 -30 8 -5 48 31 40 37 -2 2 -14 -2
-26 -7z" />
    <path d="M450 650 c0 -7 3 -10 7 -7 3 4 3 10 0 14 -4 3 -7 0 -7 -7z" />
    <path d="M1095 640 c3 -5 10 -10 16 -10 5 0 9 5 9 10 0 6 -7 10 -16 10 l-15 0
6 -10z" />
    <path d="M1077 613 c-4 -3 -7 -11 -7 -17 l0 -10 12 12 c6 6 9 14 7 17 -3 3 -9
2 -12 -2z" />
    <path d="M1050 600 c0 -7 3 -10 7 -7 3 4 3 10 0 14 -4 3 -7 0 -7 -7z" />
    <path d="M1642 602 c2 -8 7 -13 12 -12 5 1 13 -4 18 -12 l10 -13 -4 13 c-2 8
-7 13 -12 12 -5 -1 -13 4 -18 12 l-10 13 4 -13z" />
    <path d="M180 570 c0 -7 3 -10 7 -7 3 4 3 10 0 14 -4 3 -7 0 -7 -7z" />
    <path d="M697 545 c-9 -19 -15 -35 -12 -35 7 0 37 61 33 66 -3 2 -12 -12 -21
-31z" />
    <path d="M1650 560 c0 -7 3 -10 7 -7 3 4 3 10 0 14 -4 3 -7 0 -7 -7z" />
    <path d="M1676 547 c3 -10 9 -15 12 -12 3 3 0 11 -7 18 l-12 12 7 -18z" />
    <path d="M1527 543 c-4 -3 -7 -13 -7 -22 l1 -16 10 18 c11 19 8 33 -4 20z" />
    <path d="M1686 507 c3 -10 9 -15 12 -12 3 3 0 11 -7 18 l-12 12 7 -18z" />
    <path d="M170 490 c0 -7 3 -10 7 -7 3 4 3 10 0 14 -4 3 -7 0 -7 -7z" />
    <path d="M1056 467 c3 -10 9 -15 12 -12 3 3 0 11 -7 18 l-12 12 7 -18z" />
    <path d="M1695 470 c3 -5 8 -10 11 -10 3 0 2 5 -1 10 -3 6 -8 10 -11 10 -3 0
-2 -4 1 -10z" />
    <path d="M420 440 c0 -7 3 -10 7 -7 3 4 3 10 0 14 -4 3 -7 0 -7 -7z" />
    <path d="M1324 425 c-47 -24 -70 -55 -41 -55 13 1 73 58 66 63 -2 2 -14 -1
-25 -8z" />
    <path d="M1510 390 c0 -7 3 -10 7 -7 3 4 3 10 0 14 -4 3 -7 0 -7 -7z" />
    <path d="M648 383 c17 -2 47 -2 65 0 17 2 3 4 -33 4 -36 0 -50 -2 -32 -4z" />
    <path d="M1700 351 c0 -6 4 -13 10 -16 l10 -6 -6 15 c-7 18 -14 21 -14 7z" />
    <path d="M1205 340 c-3 -5 -2 -10 4 -10 5 0 13 5 16 10 3 6 2 10 -4 10 -5 0
-13 -4 -16 -10z" />
    <path d="M473 323 c4 -3 10 -3 14 0 3 4 0 7 -7 7 -7 0 -10 -3 -7 -7z" />
    <path d="M1153 323 c4 -3 10 -3 14 0 3 4 0 7 -7 7 -7 0 -10 -3 -7 -7z" />
    <path d="M400 310 c0 -7 3 -10 7 -7 3 4 3 10 0 14 -4 3 -7 0 -7 -7z" />
    <path d="M1108 313 c7 -3 16 -2 19 1 4 3 -2 6 -13 5 l-19 -1 13 -5z" />
    <path d="M1710 310 c0 -7 3 -10 7 -7 3 4 3 10 0 14 -4 3 -7 0 -7 -7z" />
    <path d="M1736 297 c3 -10 9 -15 12 -12 3 3 0 11 -7 18 l-12 12 7 -18z" />
    <path d="M1720 270 c0 -7 3 -10 7 -7 3 4 3 10 0 14 -4 3 -7 0 -7 -7z" />
    <path d="M1501 254 l1 -19 5 13 c3 7 2 16 -1 19 -3 4 -6 -2 -5 -13z" />
    <path d="M1746 257 c3 -10 9 -15 12 -12 3 3 0 11 -7 18 l-12 12 7 -18z" />
    <path d="M1050 250 c0 -7 3 -10 7 -7 3 4 3 10 0 14 -4 3 -7 0 -7 -7z" />
    <path d="M560 240 c0 -7 3 -10 7 -7 3 4 3 10 0 14 -4 3 -7 0 -7 -7z" />
    <path d="M920 240 c0 -5 5 -10 10 -10 6 0 10 5 10 10 0 6 -4 10 -10 10 -5 0
-10 -4 -10 -10z" />
    <path d="M596 221 l-6 -9 20 5 c23 6 26 13 6 13 -8 0 -17 -4 -20 -9z" />
    <path d="M1080 220 c0 -7 3 -10 7 -7 3 4 3 10 0 14 -4 3 -7 0 -7 -7z" />
    <path d="M1756 217 c3 -10 9 -15 12 -12 3 3 0 11 -7 18 l-12 12 7 -18z" />
    <path d="M680 200 c0 -7 3 -10 7 -7 3 4 3 10 0 14 -4 3 -7 0 -7 -7z" />
    <path d="M872 196 c7 -8 15 -12 17 -11 5 6 -10 25 -20 25 l-10 0 13 -14z" />
    <path d="M1113 198 c-17 -23 -25 -44 -9 -24 9 11 22 23 28 28 l13 8 -11 0 c-6
0 -16 -6 -21 -12z" />
    <path d="M803 193 c4 -3 10 -3 14 0 3 4 0 7 -7 7 -7 0 -10 -3 -7 -7z" />
    <path d="M130 180 c0 -7 3 -10 7 -7 3 4 3 10 0 14 -4 3 -7 0 -7 -7z" />
    <path d="M595 180 c3 -5 8 -10 11 -10 3 0 2 5 -1 10 -3 6 -8 10 -11 10 -3 0
-2 -4 1 -10z" />
    <path d="M646 163 l-7 -18 12 12 c7 7 10 15 7 18 -3 3 -9 -2 -12 -12z" />
    <path d="M776 168 c3 -5 10 -6 15 -3 13 9 11 12 -6 12 -8 0 -12 -4 -9 -9z" />
    <path d="M976 165 c4 -8 8 -15 10 -15 2 0 4 7 4 15 0 8 -4 15 -10 15 -5 0 -7
-7 -4 -15z" />
    <path d="M1126 164 l-6 -17 14 12 15 13 12 -8 12 -7 -7 11 c-10 17 -33 15 -40
-4z" />
    <path d="M1070 160 c0 -7 3 -10 7 -7 3 4 3 10 0 14 -4 3 -7 0 -7 -7z" />
    <path d="M730 150 c0 -7 3 -10 7 -7 3 4 3 10 0 14 -4 3 -7 0 -7 -7z" />
    <path d="M1146 130 l-7 -25 -9 20 -9 20 0 -17 c-1 -9 3 -19 8 -22 12 -8 34 20
29 36 l-4 12 -8 -24z" />
    <path d="M540 130 c0 -7 3 -10 7 -7 3 4 3 10 0 14 -4 3 -7 0 -7 -7z" />
    <path d="M810 129 c0 -5 5 -7 10 -4 6 3 10 8 10 11 0 2 -4 4 -10 4 -5 0 -10
-5 -10 -11z" />
    <path d="M843 126 l0 -14 14 5 c19 8 16 -14 -4 -26 -10 -6 -13 -11 -7 -11 13
0 28 17 37 43 l6 17 -23 0 -23 0 0 -14z" />
    <path d="M900 130 c0 -7 3 -10 7 -7 3 4 3 10 0 14 -4 3 -7 0 -7 -7z" />
    <path d="M723 118 c-12 -20 -12 -38 -1 -38 6 0 8 6 5 14 -3 7 0 19 6 25 6 6 8
11 5 11 -4 0 -10 -6 -15 -12z" />
    <path d="M760 120 c0 -7 3 -10 7 -7 3 4 3 10 0 14 -4 3 -7 0 -7 -7z" />
    <path d="M993 104 c-13 -14 -18 -24 -11 -22 10 4 45 48 37 48 -2 0 -14 -12
-26 -26z" />
    <path d="M963 113 c4 -3 10 -3 14 0 3 4 0 7 -7 7 -7 0 -10 -3 -7 -7z" />
    <path d="M1180 110 c0 -7 3 -10 7 -7 3 4 3 10 0 14 -4 3 -7 0 -7 -7z" />
    <path d="M80 100 l-45 -7 48 -1 47 -2 0 10 c0 6 -1 9 -2 8 -2 0 -23 -4 -48 -8z" />
    <path d="M330 100 l-45 -7 48 -1 47 -2 0 10 c0 6 -1 9 -2 8 -2 0 -23 -4 -48
-8z" />
    <path d="M780 101 c0 -10 19 -25 25 -20 1 2 -3 10 -11 17 l-14 13 0 -10z" />
    <path d="M670 90 c0 -5 5 -10 11 -10 5 0 7 5 4 10 -3 6 -8 10 -11 10 -2 0 -4
-4 -4 -10z" />
    <path d="M1133 83 c4 -3 10 -3 14 0 3 4 0 7 -7 7 -7 0 -10 -3 -7 -7z" />
  </g>
  <g transform="translate(0.000000,145.000000) scale(0.100000,-0.100000)" fill="#dbdcdd" stroke="none">
    <path d="M1128 1163 c-10 -2 -18 -9 -18 -14 0 -14 16 -11 30 6 7 8 11 14 9 14
-2 -1 -12 -3 -21 -6z" />
    <path d="M1090 1100 c0 -7 3 -10 7 -7 3 4 3 10 0 14 -4 3 -7 0 -7 -7z" />
    <path d="M1060 1001 l0 -72 9 6 c11 6 9 120 -2 131 -4 4 -7 -25 -7 -65z" />
    <path d="M1140 959 c0 -56 3 -99 8 -95 10 11 11 185 1 192 l-9 5 0 -102z" />
    <path d="M1228 963 l6 -28 4 19 c2 10 0 22 -6 28 l-10 10 6 -29z" />
    <path d="M251 844 l1 -19 5 13 c3 7 2 16 -1 19 -3 4 -6 -2 -5 -13z" />
    <path d="M501 844 l1 -19 5 13 c3 7 2 16 -1 19 -3 4 -6 -2 -5 -13z" />
    <path d="M1583 853 c4 -3 10 -3 14 0 3 4 0 7 -7 7 -7 0 -10 -3 -7 -7z" />
    <path d="M1820 850 c0 -7 3 -10 7 -7 3 4 3 10 0 14 -4 3 -7 0 -7 -7z" />
    <path d="M922 843 c70 -2 187 -2 260 0 73 1 16 3 -127 3 -143 0 -203 -2 -133
-3z" />
    <path d="M1590 830 c0 -7 3 -10 7 -7 3 4 3 10 0 14 -4 3 -7 0 -7 -7z" />
    <path d="M1785 820 c-19 -21 -29 -50 -17 -50 9 0 35 40 38 58 1 6 1 12 0 12
-2 0 -11 -9 -21 -20z m15 -4 c0 -2 -8 -10 -17 -17 l-18 -14 14 18 c13 16 21
21 21 13z" />
    <path d="M230 820 c0 -7 3 -10 7 -7 3 4 3 10 0 14 -4 3 -7 0 -7 -7z" />
    <path d="M481 814 l1 -19 5 13 c3 7 2 16 -1 19 -3 4 -6 -2 -5 -13z" />
    <path d="M1570 820 c0 -7 3 -10 7 -7 3 4 3 10 0 14 -4 3 -7 0 -7 -7z" />
    <path d="M240 790 c0 -7 3 -10 7 -7 3 4 3 10 0 14 -4 3 -7 0 -7 -7z" />
    <path d="M1580 780 c0 -7 3 -10 7 -7 3 4 3 10 0 14 -4 3 -7 0 -7 -7z" />
    <path d="M220 770 c0 -7 3 -10 7 -7 3 4 3 10 0 14 -4 3 -7 0 -7 -7z" />
    <path d="M490 770 c0 -7 3 -10 7 -7 3 4 3 10 0 14 -4 3 -7 0 -7 -7z" />
    <path d="M1560 760 c0 -7 3 -10 7 -7 3 4 3 10 0 14 -4 3 -7 0 -7 -7z" />
    <path d="M1730 755 c-7 -8 -9 -15 -5 -15 4 0 1 -8 -6 -17 l-14 -18 21 18 c11
9 21 24 21 32 0 8 -1 15 -2 15 -2 0 -8 -7 -15 -15z" />
    <path d="M470 750 c0 -7 3 -10 7 -7 3 4 3 10 0 14 -4 3 -7 0 -7 -7z" />
    <path d="M230 730 c0 -7 3 -10 7 -7 3 4 3 10 0 14 -4 3 -7 0 -7 -7z" />
    <path d="M1321 713 c13 -16 29 -30 36 -30 20 0 2 27 -30 44 l-30 15 24 -29z" />
    <path d="M210 710 c0 -6 7 -10 15 -10 8 0 15 2 15 4 0 2 -7 6 -15 10 -8 3 -15
1 -15 -4z" />
    <path d="M1550 704 l0 -15 10 6 c6 4 8 11 5 16 -9 14 -15 11 -15 -7z" />
    <path d="M480 700 c0 -7 3 -10 7 -7 3 4 3 10 0 14 -4 3 -7 0 -7 -7z" />
    <path d="M1675 690 c-11 -12 -20 -28 -21 -37 l-3 -15 23 21 c12 12 23 28 23
36 0 8 -1 15 -2 15 -1 0 -10 -9 -20 -20z m15 -4 c0 -2 -8 -10 -17 -17 l-18
-14 14 18 c13 16 21 21 21 13z" />
    <path d="M460 680 c0 -7 3 -10 7 -7 3 4 3 10 0 14 -4 3 -7 0 -7 -7z" />
    <path d="M1364 658 l-7 -11 11 7 c12 7 16 16 8 16 -3 0 -8 -5 -12 -12z" />
    <path d="M830 650 c0 -7 3 -10 7 -7 3 4 3 10 0 14 -4 3 -7 0 -7 -7z" />
    <path d="M1100 640 c-6 -11 -15 -18 -21 -15 -5 4 -9 3 -8 -2 3 -20 -2 -34 -11
-28 l-10 6 6 -15 6 -16 22 32 c12 18 33 38 46 45 l25 13 -22 0 -22 0 -11 -20z" />
    <path d="M471 634 l1 -19 5 13 c3 7 2 16 -1 19 -3 4 -6 -2 -5 -13z" />
    <path d="M1380 640 c0 -7 3 -10 7 -7 3 4 3 10 0 14 -4 3 -7 0 -7 -7z" />
    <path d="M451 614 l1 -19 5 13 c3 7 2 16 -1 19 -3 4 -6 -2 -5 -13z" />
    <path d="M1371 604 l1 -19 5 13 c3 7 2 16 -1 19 -3 4 -6 -2 -5 -13z" />
    <path d="M840 600 c0 -7 3 -10 7 -7 3 4 3 10 0 14 -4 3 -7 0 -7 -7z" />
    <path d="M1651 574 l1 -19 5 13 c3 7 2 16 -1 19 -3 4 -6 -2 -5 -13z" />
    <path d="M460 570 c0 -7 3 -10 7 -7 3 4 3 10 0 14 -4 3 -7 0 -7 -7z" />
    <path d="M201 554 l1 -19 5 13 c3 7 2 16 -1 19 -3 4 -6 -2 -5 -13z" />
    <path d="M441 544 l1 -19 5 13 c3 7 2 16 -1 19 -3 4 -6 -2 -5 -13z" />
    <path d="M850 550 c0 -7 3 -10 7 -7 3 4 3 10 0 14 -4 3 -7 0 -7 -7z" />
    <path d="M1530 540 c0 -7 3 -10 7 -7 3 4 3 10 0 14 -4 3 -7 0 -7 -7z" />
    <path d="M181 524 l1 -19 5 13 c3 7 2 16 -1 19 -3 4 -6 -2 -5 -13z" />
    <path d="M1660 530 c0 -7 3 -10 7 -7 3 4 3 10 0 14 -4 3 -7 0 -7 -7z" />
    <path d="M1680 520 c0 -7 3 -10 7 -7 3 4 3 10 0 14 -4 3 -7 0 -7 -7z" />
    <path d="M450 500 c0 -7 3 -10 7 -7 3 4 3 10 0 14 -4 3 -7 0 -7 -7z" />
    <path d="M656 503 c-11 -11 -6 -23 9 -23 8 0 15 4 15 9 0 13 -16 22 -24 14z" />
    <path d="M860 500 c0 -7 3 -10 7 -7 3 4 3 10 0 14 -4 3 -7 0 -7 -7z" />
    <path d="M191 474 l1 -19 5 13 c3 7 2 16 -1 19 -3 4 -6 -2 -5 -13z" />
    <path d="M430 480 c0 -7 3 -10 7 -7 3 4 3 10 0 14 -4 3 -7 0 -7 -7z" />
    <path d="M1344 479 c-3 -6 -1 -16 5 -22 l12 -12 -7 19 -7 19 11 -7 12 -7 0 10
c0 14 -17 14 -26 0z" />
    <path d="M1690 480 c0 -7 3 -10 7 -7 3 4 3 10 0 14 -4 3 -7 0 -7 -7z" />
    <path d="M851 464 l1 -19 5 13 c3 7 2 16 -1 19 -3 4 -6 -2 -5 -13z" />
    <path d="M1522 450 c0 -14 2 -19 5 -12 2 6 2 18 0 25 -3 6 -5 1 -5 -13z" />
    <path d="M170 450 c0 -7 3 -10 7 -7 3 4 3 10 0 14 -4 3 -7 0 -7 -7z" />
    <path d="M870 450 c0 -7 3 -10 7 -7 3 4 3 10 0 14 -4 3 -7 0 -7 -7z" />
    <path d="M1065 450 c3 -5 8 -10 11 -10 3 0 2 5 -1 10 -3 6 -8 10 -11 10 -3 0
-2 -4 1 -10z" />
    <path d="M1680 450 c0 -7 3 -10 7 -7 3 4 3 10 0 14 -4 3 -7 0 -7 -7z" />
    <path d="M440 430 c0 -7 3 -10 7 -7 3 4 3 10 0 14 -4 3 -7 0 -7 -7z" />
    <path d="M1323 423 l0 -13 14 11 c7 6 13 12 13 14 0 1 -6 2 -13 2 -8 0 -14 -6
-14 -14z" />
    <path d="M861 414 l1 -19 5 13 c3 7 2 16 -1 19 -3 4 -6 -2 -5 -13z" />
    <path d="M420 410 c0 -7 3 -10 7 -7 3 4 3 10 0 14 -4 3 -7 0 -7 -7z" />
    <path d="M181 394 l1 -19 5 13 c3 7 2 16 -1 19 -3 4 -6 -2 -5 -13z" />
    <path d="M880 400 c0 -7 3 -10 7 -7 3 4 3 10 0 14 -4 3 -7 0 -7 -7z" />
    <path d="M161 374 l1 -19 5 13 c3 7 2 16 -1 19 -3 4 -6 -2 -5 -13z" />
    <path d="M614 378 l-7 -11 11 7 c12 7 16 16 8 16 -3 0 -8 -5 -12 -12z" />
    <path d="M1275 380 c-3 -5 -2 -10 4 -10 5 0 13 5 16 10 3 6 2 10 -4 10 -5 0
-13 -4 -16 -10z" />
    <path d="M431 364 l1 -19 5 13 c3 7 2 16 -1 19 -3 4 -6 -2 -5 -13z" />
    <path d="M870 370 c0 -7 3 -10 7 -7 3 4 3 10 0 14 -4 3 -7 0 -7 -7z" />
    <path d="M1532 360 c0 -14 2 -19 5 -12 2 6 2 18 0 25 -3 6 -5 1 -5 -13z" />
    <path d="M595 360 c3 -5 8 -10 11 -10 3 0 2 5 -1 10 -3 6 -8 10 -11 10 -3 0
-2 -4 1 -10z" />
    <path d="M1230 349 l-25 -20 20 9 c11 5 27 11 35 14 l14 4 -10 6 c-5 4 -21 -3
-34 -13z" />
    <path d="M411 344 l1 -19 5 13 c3 7 2 16 -1 19 -3 4 -6 -2 -5 -13z" />
    <path d="M890 350 c0 -7 3 -10 7 -7 3 4 3 10 0 14 -4 3 -7 0 -7 -7z" />
    <path d="M586 337 c3 -10 9 -15 12 -12 3 3 0 11 -7 18 l-12 12 7 -18z" />
    <path d="M1512 320 c0 -14 2 -19 5 -12 2 6 2 18 0 25 -3 6 -5 1 -5 -13z" />
    <path d="M170 320 c0 -7 3 -10 7 -7 3 4 3 10 0 14 -4 3 -7 0 -7 -7z" />
    <path d="M151 294 l1 -19 5 13 c3 7 2 16 -1 19 -3 4 -6 -2 -5 -13z" />
    <path d="M421 294 l1 -19 5 13 c3 7 2 16 -1 19 -3 4 -6 -2 -5 -13z" />
    <path d="M401 274 l1 -19 5 13 c3 7 2 16 -1 19 -3 4 -6 -2 -5 -13z" />
    <path d="M1720 280 c0 -7 3 -10 7 -7 3 4 3 10 0 14 -4 3 -7 0 -7 -7z" />
    <path d="M160 240 c0 -7 3 -10 7 -7 3 4 3 10 0 14 -4 3 -7 0 -7 -7z" />
    <path d="M1522 230 c0 -14 2 -19 5 -12 2 6 2 18 0 25 -3 6 -5 1 -5 -13z" />
    <path d="M410 230 c0 -7 3 -10 7 -7 3 4 3 10 0 14 -4 3 -7 0 -7 -7z" />
    <path d="M1750 230 c0 -7 3 -10 7 -7 3 4 3 10 0 14 -4 3 -7 0 -7 -7z" />
    <path d="M141 214 l1 -19 5 13 c3 7 2 16 -1 19 -3 4 -6 -2 -5 -13z" />
    <path d="M390 210 c0 -7 3 -10 7 -7 3 4 3 10 0 14 -4 3 -7 0 -7 -7z" />
    <path d="M1501 188 l-1 -28 18 0 17 0 -11 8 c-7 4 -14 16 -17 27 l-5 20 -1
-27z" />
    <path d="M1760 190 c0 -7 3 -10 7 -7 3 4 3 10 0 14 -4 3 -7 0 -7 -7z" />
    <path d="M151 164 l1 -19 5 13 c3 7 2 16 -1 19 -3 4 -6 -2 -5 -13z" />
    <path d="M400 160 c0 -7 3 -10 7 -7 3 4 3 10 0 14 -4 3 -7 0 -7 -7z" />
    <path d="M1758 163 c7 -3 16 -2 19 1 4 3 -2 6 -13 5 l-19 -1 13 -5z" />
    <path d="M130 140 c0 -7 3 -10 7 -7 3 4 3 10 0 14 -4 3 -7 0 -7 -7z" />
    <path d="M380 140 c0 -7 3 -10 7 -7 3 4 3 10 0 14 -4 3 -7 0 -7 -7z" />
  </g>
  <g transform="translate(0.000000,145.000000) scale(0.100000,-0.100000)" fill="#f5f6f6" stroke="none">
    <path d="M955 1420 c10 -11 20 -20 23 -20 3 0 -3 9 -13 20 -10 11 -20 20 -23
20 -3 0 3 -9 13 -20z" />
    <path d="M923 1413 c4 -3 10 -3 14 0 3 4 0 7 -7 7 -7 0 -10 -3 -7 -7z" />
    <path d="M905 1390 c3 -5 8 -10 11 -10 3 0 2 5 -1 10 -3 6 -8 10 -11 10 -3 0
-2 -4 1 -10z" />
    <path d="M894 1373 c11 -13 26 -23 35 -22 l16 1 -15 5 c-8 3 -24 13 -35 22
l-20 16 19 -22z" />
    <path d="M954 1368 l-7 -11 11 7 c12 7 16 16 8 16 -3 0 -8 -5 -12 -12z" />
    <path d="M1684 1308 l-7 -11 11 7 c12 7 16 16 8 16 -3 0 -8 -5 -12 -12z" />
    <path d="M1331 1283 c5 -13 9 -26 9 -28 0 -2 -8 -5 -17 -7 -10 -3 1 -5 25 -5
23 0 44 3 47 7 2 3 -6 6 -18 6 l-22 -1 -2 25 -3 25 9 -20 10 -20 0 18 1 18 13
-7 12 -7 -8 9 c-5 5 -21 9 -37 10 l-28 1 9 -24z" />
    <path d="M1622 1285 l0 -30 5 18 c2 9 2 23 0 30 -3 6 -5 -1 -5 -18z" />
    <path d="M1048 1253 c7 -3 16 -2 19 1 4 3 -2 6 -13 5 l-19 -1 13 -5z" />
    <path d="M1423 1243 c4 -3 10 -3 14 0 3 4 0 7 -7 7 -7 0 -10 -3 -7 -7z" />
    <path d="M1473 1243 c4 -3 10 -3 14 0 3 4 0 7 -7 7 -7 0 -10 -3 -7 -7z" />
    <path d="M1543 1243 c4 -3 10 -3 14 0 3 4 0 7 -7 7 -7 0 -10 -3 -7 -7z" />
    <path d="M1643 1243 c4 -3 10 -3 14 0 3 4 0 7 -7 7 -7 0 -10 -3 -7 -7z" />
    <path d="M1044 1218 l-7 -11 11 7 c12 7 16 16 8 16 -3 0 -8 -5 -12 -12z" />
    <path d="M1144 1168 l-7 -11 11 7 c12 7 16 16 8 16 -3 0 -8 -5 -12 -12z" />
    <path d="M1240 1160 c0 -7 3 -10 7 -7 3 4 3 10 0 14 -4 3 -7 0 -7 -7z" />
    <path d="M1115 1150 c3 -5 8 -10 11 -10 2 0 4 5 4 10 0 6 -5 10 -11 10 -5 0
-7 -4 -4 -10z" />
    <path d="M1817 843 c-4 -3 -7 -11 -7 -17 l0 -10 12 12 c6 6 9 14 7 17 -3 3 -9
2 -12 -2z" />
    <path d="M220 790 c0 -7 3 -10 7 -7 3 4 3 10 0 14 -4 3 -7 0 -7 -7z" />
    <path d="M1753 765 l0 -15 14 11 c7 6 13 13 13 15 0 2 -6 4 -13 4 -8 0 -14 -7
-14 -15z" />
    <path d="M240 760 c0 -7 3 -10 7 -7 3 4 3 10 0 14 -4 3 -7 0 -7 -7z" />
    <path d="M1550 730 c0 -7 3 -10 7 -7 3 4 3 10 0 14 -4 3 -7 0 -7 -7z" />
    <path d="M1336 705 c4 -8 10 -12 15 -9 11 6 2 24 -11 24 -5 0 -7 -7 -4 -15z" />
    <path d="M1707 713 c-4 -3 -7 -11 -7 -17 l0 -10 12 12 c6 6 9 14 7 17 -3 3 -9
2 -12 -2z" />
    <path d="M800 700 c0 -7 3 -10 7 -7 3 4 3 10 0 14 -4 3 -7 0 -7 -7z" />
    <path d="M1144 658 l-7 -11 11 7 c12 7 16 16 8 16 -3 0 -8 -5 -12 -12z" />
    <path d="M810 650 c0 -7 3 -10 7 -7 3 4 3 10 0 14 -4 3 -7 0 -7 -7z" />
    <path d="M1110 649 c0 -5 5 -7 10 -4 6 3 10 8 10 11 0 2 -4 4 -10 4 -5 0 -10
-5 -10 -11z" />
    <path d="M450 640 c0 -7 3 -10 7 -7 3 4 3 10 0 14 -4 3 -7 0 -7 -7z" />
    <path d="M1656 627 c3 -10 9 -15 12 -12 3 3 0 11 -7 18 l-12 12 7 -18z" />
    <path d="M820 600 c0 -7 3 -10 7 -7 3 4 3 10 0 14 -4 3 -7 0 -7 -7z" />
    <path d="M705 590 c3 -5 8 -10 11 -10 2 0 4 5 4 10 0 6 -5 10 -11 10 -5 0 -7
-4 -4 -10z" />
    <path d="M1035 569 c-4 -6 -5 -12 -2 -15 2 -3 7 2 10 11 7 17 1 20 -8 4z" />
    <path d="M180 560 c0 -7 3 -10 7 -7 3 4 3 10 0 14 -4 3 -7 0 -7 -7z" />
    <path d="M830 550 c0 -7 3 -10 7 -7 3 4 3 10 0 14 -4 3 -7 0 -7 -7z" />
    <path d="M1050 540 c0 -7 3 -10 7 -7 3 4 3 10 0 14 -4 3 -7 0 -7 -7z" />
    <path d="M1660 520 c0 -7 3 -10 7 -7 3 4 3 10 0 14 -4 3 -7 0 -7 -7z" />
    <path d="M1540 510 c0 -7 3 -10 7 -7 3 4 3 10 0 14 -4 3 -7 0 -7 -7z" />
    <path d="M840 500 c0 -7 3 -10 7 -7 3 4 3 10 0 14 -4 3 -7 0 -7 -7z" />
    <path d="M1050 490 c0 -7 3 -10 7 -7 3 4 3 10 0 14 -4 3 -7 0 -7 -7z" />
    <path d="M170 480 c0 -7 3 -10 7 -7 3 4 3 10 0 14 -4 3 -7 0 -7 -7z" />
    <path d="M1344 478 l-7 -11 11 7 c7 4 12 9 12 12 0 8 -9 4 -16 -8z" />
    <path d="M1040 460 c0 -7 3 -10 7 -7 3 4 3 10 0 14 -4 3 -7 0 -7 -7z" />
    <path d="M850 450 c0 -7 3 -10 7 -7 3 4 3 10 0 14 -4 3 -7 0 -7 -7z" />
    <path d="M1066 441 c-3 -5 1 -11 9 -15 8 -3 15 -1 15 4 0 13 -18 22 -24 11z" />
    <path d="M1300 405 c-7 -9 -10 -18 -7 -22 8 -7 37 15 37 28 0 14 -16 11 -30
-6z" />
    <path d="M860 400 c0 -7 3 -10 7 -7 3 4 3 10 0 14 -4 3 -7 0 -7 -7z" />
    <path d="M410 370 c0 -7 3 -10 7 -7 3 4 3 10 0 14 -4 3 -7 0 -7 -7z" />
    <path d="M1720 370 c0 -7 3 -10 7 -7 3 4 3 10 0 14 -4 3 -7 0 -7 -7z" />
    <path d="M1255 360 c3 -5 8 -10 11 -10 3 0 2 5 -1 10 -3 6 -8 10 -11 10 -3 0
-2 -4 1 -10z" />
    <path d="M1726 337 c3 -10 9 -15 12 -12 3 3 0 11 -7 18 l-12 12 7 -18z" />
    <path d="M525 330 l-50 -7 47 -1 c26 -1 50 3 53 8 3 6 5 9 3 8 -2 0 -25 -4
-53 -8z" />
    <path d="M803 323 c15 -2 39 -2 55 0 15 2 2 4 -28 4 -30 0 -43 -2 -27 -4z" />
    <path d="M1123 313 c4 -3 10 -3 14 0 3 4 0 7 -7 7 -7 0 -10 -3 -7 -7z" />
    <path d="M400 300 c0 -7 3 -10 7 -7 3 4 3 10 0 14 -4 3 -7 0 -7 -7z" />
    <path d="M633 253 c4 -3 10 -3 14 0 3 4 0 7 -7 7 -7 0 -10 -3 -7 -7z" />
    <path d="M1500 240 c0 -7 3 -10 7 -7 3 4 3 10 0 14 -4 3 -7 0 -7 -7z" />
    <path d="M923 233 c4 -3 10 -3 14 0 3 4 0 7 -7 7 -7 0 -10 -3 -7 -7z" />
    <path d="M1163 203 c4 -3 10 -3 14 0 3 4 0 7 -7 7 -7 0 -10 -3 -7 -7z" />
    <path d="M1010 190 c0 -7 3 -10 7 -7 3 4 3 10 0 14 -4 3 -7 0 -7 -7z" />
    <path d="M130 170 c0 -7 3 -10 7 -7 3 4 3 10 0 14 -4 3 -7 0 -7 -7z" />
    <path d="M875 140 c-3 -5 -1 -10 4 -10 6 0 11 5 11 10 0 6 -2 10 -4 10 -3 0
-8 -4 -11 -10z" />
    <path d="M1150 130 c0 -7 3 -10 7 -7 3 4 3 10 0 14 -4 3 -7 0 -7 -7z" />
    <path d="M1125 110 c3 -5 8 -10 11 -10 3 0 2 5 -1 10 -3 6 -8 10 -11 10 -3 0
-2 -4 1 -10z" />
    <path d="M370 100 c0 -7 3 -10 7 -7 3 4 3 10 0 14 -4 3 -7 0 -7 -7z" />
    <path d="M390 100 c0 -7 3 -10 7 -7 3 4 3 10 0 14 -4 3 -7 0 -7 -7z" />
    <path d="M1090 100 c0 -7 3 -10 7 -7 3 4 3 10 0 14 -4 3 -7 0 -7 -7z" />
    <path d="M933 83 c4 -3 10 -3 14 0 3 4 0 7 -7 7 -7 0 -10 -3 -7 -7z" />
  </g>
  <g transform="translate(0.000000,145.000000) scale(0.100000,-0.100000)" fill="#eaebec" stroke="none">
    <path d="M1095 1119 c-4 -6 -5 -12 -2 -15 2 -3 7 2 10 11 7 17 1 20 -8 4z" />
    <path d="M480 830 c0 -7 3 -10 7 -7 3 4 3 10 0 14 -4 3 -7 0 -7 -7z" />
    <path d="M1590 820 c0 -7 3 -10 7 -7 3 4 3 10 0 14 -4 3 -7 0 -7 -7z" />
    <path d="M1799 813 l-14 -18 18 14 c16 13 21 21 13 21 -2 0 -10 -8 -17 -17z" />
    <path d="M220 780 c0 -7 3 -10 7 -7 3 4 3 10 0 14 -4 3 -7 0 -7 -7z" />
    <path d="M1263 753 c4 -3 10 -3 14 0 3 4 0 7 -7 7 -7 0 -10 -3 -7 -7z" />
    <path d="M1553 711 c0 -11 5 -18 9 -15 4 3 5 11 1 19 -7 21 -12 19 -10 -4z" />
    <path d="M800 710 c0 -7 3 -10 7 -7 3 4 3 10 0 14 -4 3 -7 0 -7 -7z" />
    <path d="M1654 668 l-7 -11 11 7 c12 7 16 16 8 16 -3 0 -8 -5 -12 -12z" />
    <path d="M810 660 c0 -7 3 -10 7 -7 3 4 3 10 0 14 -4 3 -7 0 -7 -7z" />
    <path d="M450 630 c0 -7 3 -10 7 -7 3 4 3 10 0 14 -4 3 -7 0 -7 -7z" />
    <path d="M820 610 c0 -7 3 -10 7 -7 3 4 3 10 0 14 -4 3 -7 0 -7 -7z" />
    <path d="M840 610 c0 -7 3 -10 7 -7 3 4 3 10 0 14 -4 3 -7 0 -7 -7z" />
    <path d="M1660 610 c0 -7 3 -10 7 -7 3 4 3 10 0 14 -4 3 -7 0 -7 -7z" />
    <path d="M440 560 c0 -7 3 -10 7 -7 3 4 3 10 0 14 -4 3 -7 0 -7 -7z" />
    <path d="M830 560 c0 -7 3 -10 7 -7 3 4 3 10 0 14 -4 3 -7 0 -7 -7z" />
    <path d="M850 560 c0 -7 3 -10 7 -7 3 4 3 10 0 14 -4 3 -7 0 -7 -7z" />
    <path d="M840 510 c0 -7 3 -10 7 -7 3 4 3 10 0 14 -4 3 -7 0 -7 -7z" />
    <path d="M860 510 c0 -7 3 -10 7 -7 3 4 3 10 0 14 -4 3 -7 0 -7 -7z" />
    <path d="M655 499 c-4 -6 -5 -12 -2 -15 2 -3 7 2 10 11 7 17 1 20 -8 4z" />
    <path d="M430 490 c0 -7 3 -10 7 -7 3 4 3 10 0 14 -4 3 -7 0 -7 -7z" />
    <path d="M870 460 c0 -7 3 -10 7 -7 3 4 3 10 0 14 -4 3 -7 0 -7 -7z" />
    <path d="M1070 440 c0 -5 5 -10 11 -10 5 0 7 5 4 10 -3 6 -8 10 -11 10 -2 0
-4 -4 -4 -10z" />
    <path d="M880 410 c0 -7 3 -10 7 -7 3 4 3 10 0 14 -4 3 -7 0 -7 -7z" />
    <path d="M160 390 c0 -7 3 -10 7 -7 3 4 3 10 0 14 -4 3 -7 0 -7 -7z" />
    <path d="M581 353 l-11 -28 15 19 c8 11 15 23 15 28 0 15 -7 8 -19 -19z" />
    <path d="M890 360 c0 -7 3 -10 7 -7 3 4 3 10 0 14 -4 3 -7 0 -7 -7z" />
    <path d="M1510 360 c0 -7 3 -10 7 -7 3 4 3 10 0 14 -4 3 -7 0 -7 -7z" />
    <path d="M1720 360 c0 -7 3 -10 7 -7 3 4 3 10 0 14 -4 3 -7 0 -7 -7z" />
    <path d="M1710 320 c0 -7 3 -10 7 -7 3 4 3 10 0 14 -4 3 -7 0 -7 -7z" />
    <path d="M1730 320 c0 -7 3 -10 7 -7 3 4 3 10 0 14 -4 3 -7 0 -7 -7z" />
    <path d="M150 310 c0 -7 3 -10 7 -7 3 4 3 10 0 14 -4 3 -7 0 -7 -7z" />
    <path d="M400 290 c0 -7 3 -10 7 -7 3 4 3 10 0 14 -4 3 -7 0 -7 -7z" />
    <path d="M420 280 c0 -7 3 -10 7 -7 3 4 3 10 0 14 -4 3 -7 0 -7 -7z" />
    <path d="M960 230 c0 -7 3 -10 7 -7 3 4 3 10 0 14 -4 3 -7 0 -7 -7z" />
    <path d="M1500 230 c0 -7 3 -10 7 -7 3 4 3 10 0 14 -4 3 -7 0 -7 -7z" />
    <path d="M390 220 c0 -7 3 -10 7 -7 3 4 3 10 0 14 -4 3 -7 0 -7 -7z" />
    <path d="M1050 220 c0 -7 3 -10 7 -7 3 4 3 10 0 14 -4 3 -7 0 -7 -7z" />
    <path d="M590 210 c0 -7 3 -10 7 -7 3 4 3 10 0 14 -4 3 -7 0 -7 -7z" />
    <path d="M923 213 c4 -3 10 -3 14 0 3 4 0 7 -7 7 -7 0 -10 -3 -7 -7z" />
    <path d="M770 200 c0 -7 3 -10 7 -7 3 4 3 10 0 14 -4 3 -7 0 -7 -7z" />
    <path d="M710 190 c0 -7 3 -10 7 -7 3 4 3 10 0 14 -4 3 -7 0 -7 -7z" />
    <path d="M1070 190 c0 -7 3 -10 7 -7 3 4 3 10 0 14 -4 3 -7 0 -7 -7z" />
    <path d="M1190 190 c0 -7 3 -10 7 -7 3 4 3 10 0 14 -4 3 -7 0 -7 -7z" />
    <path d="M740 180 c0 -7 3 -10 7 -7 3 4 3 10 0 14 -4 3 -7 0 -7 -7z" />
    <path d="M824 178 l-7 -11 11 7 c7 4 12 9 12 12 0 8 -9 4 -16 -8z" />
    <path d="M680 170 c0 -7 3 -10 7 -7 3 4 3 10 0 14 -4 3 -7 0 -7 -7z" />
    <path d="M550 160 c0 -7 3 -10 7 -7 3 4 3 10 0 14 -4 3 -7 0 -7 -7z" />
    <path d="M910 160 c0 -7 3 -10 7 -7 3 4 3 10 0 14 -4 3 -7 0 -7 -7z" />
    <path d="M880 152 l0 -12 -37 -2 -38 -1 34 -4 c33 -4 61 10 48 24 -4 3 -7 1
-7 -5z" />
    <path d="M1010 150 c0 -7 3 -10 7 -7 3 4 3 10 0 14 -4 3 -7 0 -7 -7z" />
    <path d="M780 140 c0 -7 3 -10 7 -7 3 4 3 10 0 14 -4 3 -7 0 -7 -7z" />
    <path d="M1090 140 c0 -7 3 -10 7 -7 3 4 3 10 0 14 -4 3 -7 0 -7 -7z" />
    <path d="M1180 140 c0 -7 3 -10 7 -7 3 4 3 10 0 14 -4 3 -7 0 -7 -7z" />
    <path d="M1060 130 c0 -7 3 -10 7 -7 3 4 3 10 0 14 -4 3 -7 0 -7 -7z" />
    <path d="M670 120 c0 -7 3 -10 7 -7 3 4 3 10 0 14 -4 3 -7 0 -7 -7z" />
    <path d="M780 110 c0 -7 3 -10 7 -7 3 4 3 10 0 14 -4 3 -7 0 -7 -7z" />
    <path d="M1030 110 c0 -7 3 -10 7 -7 3 4 3 10 0 14 -4 3 -7 0 -7 -7z" />
    <path d="M540 100 c0 -7 3 -10 7 -7 3 4 3 10 0 14 -4 3 -7 0 -7 -7z" />
    <path d="M570 100 c0 -7 3 -10 7 -7 3 4 3 10 0 14 -4 3 -7 0 -7 -7z" />
    <path d="M713 95 c0 -8 4 -12 9 -9 5 3 6 10 3 15 -9 13 -12 11 -12 -6z" />
    <path d="M900 100 c0 -7 3 -10 7 -7 3 4 3 10 0 14 -4 3 -7 0 -7 -7z" />
    <path d="M675 90 c3 -5 8 -10 11 -10 3 0 2 5 -1 10 -3 6 -8 10 -11 10 -3 0 -2
-4 1 -10z" />
    <path d="M833 83 c4 -3 10 -3 14 0 3 4 0 7 -7 7 -7 0 -10 -3 -7 -7z" />
    <path d="M923 83 c4 -3 10 -3 14 0 3 4 0 7 -7 7 -7 0 -10 -3 -7 -7z" />
  </g>
  <g transform="translate(0.000000,145.000000) scale(0.100000,-0.100000)" fill="#d5d5d7" stroke="none">
    <path d="M1145 1210 c3 -5 8 -10 11 -10 3 0 2 5 -1 10 -3 6 -8 10 -11 10 -3 0
-2 -4 1 -10z" />
    <path d="M1120 1150 c0 -7 3 -10 7 -7 3 4 3 10 0 14 -4 3 -7 0 -7 -7z" />
    <path d="M1105 1120 c3 -5 8 -10 11 -10 2 0 4 5 4 10 0 6 -5 10 -11 10 -5 0
-7 -4 -4 -10z" />
    <path d="M1811 841 l-13 -8 10 -7 c5 -3 12 1 16 9 6 17 6 18 -13 6z" />
    <path d="M1745 771 c-3 -5 0 -13 6 -17 l12 -7 -7 11 c-3 5 0 13 6 15 l13 5
-12 1 c-6 1 -14 -3 -18 -8z" />
    <path d="M810 750 c0 -7 3 -10 7 -7 3 4 3 10 0 14 -4 3 -7 0 -7 -7z" />
    <path d="M1295 740 c3 -5 8 -10 11 -10 3 0 2 5 -1 10 -3 6 -8 10 -11 10 -3 0
-2 -4 1 -10z" />
    <path d="M1570 730 c0 -7 3 -10 7 -7 3 4 3 10 0 14 -4 3 -7 0 -7 -7z" />
    <path d="M800 720 c0 -7 3 -10 7 -7 3 4 3 10 0 14 -4 3 -7 0 -7 -7z" />
    <path d="M1328 713 c6 -2 12 -11 12 -18 0 -19 17 -28 26 -14 l7 12 -10 -6 -11
-7 -5 20 c-3 11 -11 20 -19 19 l-13 -1 13 -5z" />
    <path d="M1701 711 l-13 -8 10 -7 c5 -3 12 1 16 9 6 17 6 18 -13 6z" />
    <path d="M820 700 c0 -7 3 -10 7 -7 3 4 3 10 0 14 -4 3 -7 0 -7 -7z" />
    <path d="M810 670 c0 -7 3 -10 7 -7 3 4 3 10 0 14 -4 3 -7 0 -7 -7z" />
    <path d="M1114 648 l-7 -11 11 7 c12 7 16 16 8 16 -3 0 -8 -5 -12 -12z" />
    <path d="M1643 628 l-2 -23 9 15 c12 18 13 30 2 30 -4 0 -9 -10 -9 -22z" />
    <path d="M820 620 c0 -7 3 -10 7 -7 3 4 3 10 0 14 -4 3 -7 0 -7 -7z" />
    <path d="M1070 600 c0 -7 3 -10 7 -7 3 4 3 10 0 14 -4 3 -7 0 -7 -7z" />
    <path d="M1656 593 l-7 -18 12 12 c7 7 10 15 7 18 -3 3 -9 -2 -12 -12z" />
    <path d="M1045 590 c-3 -5 -2 -17 3 -26 l9 -16 6 16 7 17 -12 -7 -11 -7 6 16
c7 19 2 23 -8 7z" />
    <path d="M830 570 c0 -7 3 -10 7 -7 3 4 3 10 0 14 -4 3 -7 0 -7 -7z" />
    <path d="M1670 560 c0 -7 3 -10 7 -7 3 4 3 10 0 14 -4 3 -7 0 -7 -7z" />
    <path d="M1030 550 c0 -7 3 -10 7 -7 3 4 3 10 0 14 -4 3 -7 0 -7 -7z" />
    <path d="M685 540 c3 -5 8 -10 11 -10 3 0 2 5 -1 10 -3 6 -8 10 -11 10 -3 0
-2 -4 1 -10z" />
    <path d="M675 520 c3 -5 8 -10 11 -10 3 0 2 5 -1 10 -3 6 -8 10 -11 10 -3 0
-2 -4 1 -10z" />
    <path d="M840 520 c0 -7 3 -10 7 -7 3 4 3 10 0 14 -4 3 -7 0 -7 -7z" />
    <path d="M1030 490 c0 -7 3 -10 7 -7 3 4 3 10 0 14 -4 3 -7 0 -7 -7z" />
    <path d="M1354 470 l0 -20 10 10 10 10 -10 10 -10 10 0 -20z" />
    <path d="M1044 468 l-7 -11 11 7 c7 4 12 9 12 12 0 8 -9 4 -16 -8z" />
    <path d="M1326 442 c-3 -5 1 -9 9 -9 8 0 12 4 9 9 -3 4 -7 8 -9 8 -2 0 -6 -4
-9 -8z" />
    <path d="M1073 433 c4 -3 10 -3 14 0 3 4 0 7 -7 7 -7 0 -10 -3 -7 -7z" />
    <path d="M1289 394 l-24 -27 21 11 c25 13 50 42 37 42 -5 0 -20 -12 -34 -26z" />
    <path d="M1690 410 c0 -7 3 -10 7 -7 3 4 3 10 0 14 -4 3 -7 0 -7 -7z" />
    <path d="M1700 370 c0 -7 3 -10 7 -7 3 4 3 10 0 14 -4 3 -7 0 -7 -7z" />
    <path d="M1244 358 l-7 -11 11 7 c7 4 12 9 12 12 0 8 -9 4 -16 -8z" />
    <path d="M1716 345 c-9 -26 -7 -32 5 -12 6 10 9 21 6 23 -2 3 -7 -2 -11 -11z" />
    <path d="M1730 310 c0 -7 3 -10 7 -7 3 4 3 10 0 14 -4 3 -7 0 -7 -7z" />
    <path d="M1740 270 c0 -7 3 -10 7 -7 3 4 3 10 0 14 -4 3 -7 0 -7 -7z" />
  </g>
  <g transform="translate(0.000000,145.000000) scale(0.100000,-0.100000)" fill="#efefef" stroke="none">
    <path d="M1110 1120 c0 -7 3 -10 7 -7 3 4 3 10 0 14 -4 3 -7 0 -7 -7z" />
    <path d="M1570 830 c0 -7 3 -10 7 -7 3 4 3 10 0 14 -4 3 -7 0 -7 -7z" />
    <path d="M1764 798 l-7 -11 11 7 c12 7 16 16 8 16 -3 0 -8 -5 -12 -12z" />
    <path d="M1744 748 l-7 -11 11 7 c12 7 16 16 8 16 -3 0 -8 -5 -12 -12z" />
    <path d="M1689 683 l-14 -18 18 14 c16 13 21 21 13 21 -2 0 -10 -8 -17 -17z" />
    <path d="M1640 610 c0 -7 3 -10 7 -7 3 4 3 10 0 14 -4 3 -7 0 -7 -7z" />
    <path d="M706 587 c3 -10 9 -15 12 -12 3 3 0 11 -7 18 l-12 12 7 -18z" />
    <path d="M1670 570 c0 -7 3 -10 7 -7 3 4 3 10 0 14 -4 3 -7 0 -7 -7z" />
    <path d="M1050 550 c0 -7 3 -10 7 -7 3 4 3 10 0 14 -4 3 -7 0 -7 -7z" />
    <path d="M1680 530 c0 -7 3 -10 7 -7 3 4 3 10 0 14 -4 3 -7 0 -7 -7z" />
    <path d="M1690 490 c0 -7 3 -10 7 -7 3 4 3 10 0 14 -4 3 -7 0 -7 -7z" />
    <path d="M1050 480 c0 -7 3 -10 7 -7 3 4 3 10 0 14 -4 3 -7 0 -7 -7z" />
    <path d="M410 360 c0 -7 3 -10 7 -7 3 4 3 10 0 14 -4 3 -7 0 -7 -7z" />
    <path d="M1700 360 c0 -7 3 -10 7 -7 3 4 3 10 0 14 -4 3 -7 0 -7 -7z" />
    <path d="M1194 328 l-7 -11 11 7 c7 4 12 9 12 12 0 8 -9 4 -16 -8z" />
    <path d="M1740 280 c0 -7 3 -10 7 -7 3 4 3 10 0 14 -4 3 -7 0 -7 -7z" />
    <path d="M1750 240 c0 -7 3 -10 7 -7 3 4 3 10 0 14 -4 3 -7 0 -7 -7z" />
    <path d="M1760 200 c0 -7 3 -10 7 -7 3 4 3 10 0 14 -4 3 -7 0 -7 -7z" />
  </g>
  <g transform="translate(0.000000,145.000000) scale(0.100000,-0.100000)" fill="#e2e3e4" stroke="none">
    <path d="M1135 1170 c3 -5 8 -10 11 -10 3 0 2 5 -1 10 -3 6 -8 10 -11 10 -3 0
-2 -4 1 -10z" />
    <path d="M1726 738 c3 -5 10 -6 15 -3 13 9 11 12 -6 12 -8 0 -12 -4 -9 -9z" />
    <path d="M1203 333 c4 -3 10 -3 14 0 3 4 0 7 -7 7 -7 0 -10 -3 -7 -7z" />
  </g>
  <g transform="translate(0.000000,145.000000) scale(0.100000,-0.100000)" fill="#dedee0" stroke="none" />
  <g transform="translate(0.000000,145.000000) scale(0.100000,-0.100000)" fill="#dfe0e1" stroke="none" />
  <g transform="translate(0.000000,145.000000) scale(0.100000,-0.100000)" fill="#000000" stroke="none" />
  <g transform="translate(0.000000,145.000000) scale(0.100000,-0.100000)" fill="#000000" stroke="none" />
  <g transform="translate(0.000000,145.000000) scale(0.100000,-0.100000)" fill="#000000" stroke="none" />
  <g transform="translate(0.000000,145.000000) scale(0.100000,-0.100000)" fill="#000000" stroke="none" />
  <g transform="translate(0.000000,145.000000) scale(0.100000,-0.100000)" fill="#000000" stroke="none" />
  <g transform="translate(0.000000,145.000000) scale(0.100000,-0.100000)" fill="#00ffff" stroke="none" />
  <g transform="translate(0.000000,145.000000) scale(0.100000,-0.100000)" fill="#000000" stroke="none" />
  <g transform="translate(0.000000,145.000000) scale(0.100000,-0.100000)" fill="#ffffff" stroke="none" />
  <g transform="translate(0.000000,145.000000) scale(0.100000,-0.100000)" fill="#ff00ff" stroke="none" />
  <g transform="translate(0.000000,145.000000) scale(0.100000,-0.100000)" fill="#000000" stroke="none" />
  <g transform="translate(0.000000,145.000000) scale(0.100000,-0.100000)" fill="#000000" stroke="none" />
  <g transform="translate(0.000000,145.000000) scale(0.100000,-0.100000)" fill="#000000" stroke="none" />
</svg>